<?xml version="1.0" standalone="no"?><!DOCTYPE svg PUBLIC "-//W3C//DTD SVG 1.1//EN" "http://www.w3.org/Graphics/SVG/1.1/DTD/svg11.dtd"><svg t="1619597186046" class="icon" viewBox="0 0 1024 1024" version="1.1" xmlns="http://www.w3.org/2000/svg" p-id="207199" xmlns:xlink="http://www.w3.org/1999/xlink" width="96" height="96"><defs><style type="text/css"></style></defs><path d="M655.36 143.36c23.04-23.04 61.44-23.04 84.48 0l84.48 84.48c23.04 23.04 23.04 61.44 0 84.48l-204.8 204.8c66.56 33.28 151.04 20.48 204.8-35.84l89.6-89.6c71.68-71.68 71.68-186.88 0-256L829.44 51.2c-71.68-71.68-184.32-71.68-256 0l-89.6 89.6c-56.32 56.32-66.56 138.24-35.84 204.8l207.36-202.24z" p-id="207200" fill="#1296db"></path><path d="M655.36 312.32c-23.04-23.04-61.44-23.04-84.48 0l-256 256c-23.04 23.04-23.04 61.44 0 84.48 23.04 23.04 61.44 23.04 84.48 0l256-256c23.04-20.48 23.04-58.88 0-84.48z" p-id="207201" fill="#1296db"></path><path d="M312.32 826.88c-23.04 23.04-61.44 23.04-84.48 0L143.36 742.4c-23.04-23.04-23.04-61.44 0-84.48l204.8-204.8c-66.56-33.28-151.04-20.48-204.8 35.84l-89.6 81.92c-71.68 71.68-71.68 186.88 0 256l92.16 92.16c71.68 71.68 186.88 71.68 256 0l81.92-89.6c56.32-56.32 66.56-138.24 35.84-204.8l-207.36 202.24zM975.36 747.52H844.8v-130.56c0-28.16-23.04-48.64-48.64-48.64s-48.64 23.04-48.64 48.64v130.56h-130.56c-28.16 0-48.64 23.04-48.64 48.64S588.8 844.8 616.96 844.8h130.56v130.56c0 28.16 23.04 48.64 48.64 48.64s48.64-23.04 48.64-48.64V844.8h130.56c28.16 0 48.64-23.04 48.64-48.64s-23.04-48.64-48.64-48.64z" p-id="207202" fill="#1296db"></path></svg>