<?xml version="1.0" standalone="no"?><!DOCTYPE svg PUBLIC "-//W3C//DTD SVG 1.1//EN" "http://www.w3.org/Graphics/SVG/1.1/DTD/svg11.dtd"><svg t="1619597043382" class="icon" viewBox="0 0 1024 1024" version="1.1" xmlns="http://www.w3.org/2000/svg" p-id="199321" xmlns:xlink="http://www.w3.org/1999/xlink" width="96" height="96"><defs><style type="text/css"></style></defs><path d="M160 960a96 96 0 0 1-96-96V160A96 96 0 0 1 160 64h640A96 96 0 0 1 896 160V384a32 32 0 1 1-64 0V160a32 32 0 0 0-32-32h-640a32 32 0 0 0-32 32v704c0 17.664 14.336 32 32 32h256a32 32 0 1 1 0 64h-256z m384-416a32 32 0 1 1 0 64h-320a32 32 0 1 1 0-64h320z m-128-160a32 32 0 1 1 0 64h-192a32 32 0 1 1 0-64h192z m192-160a32 32 0 1 1 0 64h-384a32 32 0 1 1 0-64h384z m150.857143 242.285714c15.725714 0 28.452571 12.726857 28.452571 28.452572l-0.036571 199.094857h199.131428a28.452571 28.452571 0 0 1 0 56.905143l-199.131428-0.036572v199.131429a28.452571 28.452571 0 0 1-56.868572 0v-199.131429h-199.094857a28.452571 28.452571 0 0 1 0-56.868571h199.094857v-199.094857c0-15.725714 12.726857-28.452571 28.452572-28.452572z" p-id="199322" fill="#1296db"></path></svg>