<?xml version="1.0" standalone="no"?><!DOCTYPE svg PUBLIC "-//W3C//DTD SVG 1.1//EN" "http://www.w3.org/Graphics/SVG/1.1/DTD/svg11.dtd"><svg t="1619596981983" class="icon" viewBox="0 0 1024 1024" version="1.1" xmlns="http://www.w3.org/2000/svg" p-id="199050" width="96" height="96" xmlns:xlink="http://www.w3.org/1999/xlink"><defs><style type="text/css"></style></defs><path d="M936.106667 339.456a33.877333 33.877333 0 0 0-8.789334-16.725333L677.632 73.130667A34.730667 34.730667 0 0 0 646.314667 64H234.666667a128 128 0 0 0-128 128v704a128 128 0 0 0 128 128H810.666667a128 128 0 0 0 128-128V352a32.512 32.512 0 0 0-2.56-12.544zM682.666667 177.92L824.746667 320H682.666667V177.92zM874.666667 896a64 64 0 0 1-64 64H234.666667a64 64 0 0 1-64-64V192a64 64 0 0 1 64-64h384v224c0 17.664 14.336 32 32 32H874.666667v512zM554.666667 416a32 32 0 0 0-64 0V576H330.666667a32 32 0 0 0 0 64H490.666667v160a32 32 0 0 0 64 0V640h160a32 32 0 0 0 0-64H554.666667V416z" p-id="199051" fill="#1296db"></path></svg>