<?xml version="1.0" standalone="no"?><!DOCTYPE svg PUBLIC "-//W3C//DTD SVG 1.1//EN" "http://www.w3.org/Graphics/SVG/1.1/DTD/svg11.dtd"><svg t="1619597713326" class="icon" viewBox="0 0 1024 1024" version="1.1" xmlns="http://www.w3.org/2000/svg" p-id="89739" xmlns:xlink="http://www.w3.org/1999/xlink" width="32" height="32"><defs><style type="text/css"></style></defs><path d="M959.328 344.224l-0.128-279.936-279.872-0.064v112h-336v-112l-279.968 0.064-0.032 279.936h112v336h-112l0.032 279.712 279.968 0.288v-112h336v112l279.872-0.288 0.128-279.712h-112v-336h112z m-224-224l167.872 0.128 0.096 167.872h-168v-168zM119.36 120.352l167.968-0.128v168h-168l0.032-167.872z m167.968 783.872l-167.968-0.384-0.032-167.616h168v168z m615.904-0.384l-167.872 0.384v-168h168l-0.096 167.616z m-111.904-223.616h-112v112h-336v-112h-112v-336h112v-112h336v112h112v336z" p-id="89740" fill="#1296db"></path></svg>