<?xml version="1.0" standalone="no"?><!DOCTYPE svg PUBLIC "-//W3C//DTD SVG 1.1//EN" "http://www.w3.org/Graphics/SVG/1.1/DTD/svg11.dtd"><svg t="1619597796075" class="icon" viewBox="0 0 1024 1024" version="1.1" xmlns="http://www.w3.org/2000/svg" p-id="90010" xmlns:xlink="http://www.w3.org/1999/xlink" width="32" height="32"><defs><style type="text/css"></style></defs><path d="M736 704a32 32 0 0 1 3.744 63.776L736 768H288a32 32 0 0 1-3.744-63.776L288 704h448z m-64-224a32 32 0 0 1 3.744 63.776L672 544H352a32 32 0 0 1-3.744-63.776L352 480h320z m129.536-224c16.832 0 30.464 14.336 30.464 32 0 16.416-11.776 29.952-26.912 31.776l-3.552 0.224H222.464C205.632 320 192 305.664 192 288c0-16.416 11.776-29.952 26.912-31.776L222.464 256h579.072z" p-id="90011" fill="#1296db"></path></svg>