<?xml version="1.0" standalone="no"?><!DOCTYPE svg PUBLIC "-//W3C//DTD SVG 1.1//EN" "http://www.w3.org/Graphics/SVG/1.1/DTD/svg11.dtd"><svg t="1619597876876" class="icon" viewBox="0 0 1024 1024" version="1.1" xmlns="http://www.w3.org/2000/svg" p-id="93826" xmlns:xlink="http://www.w3.org/1999/xlink" width="32" height="32"><defs><style type="text/css"></style></defs><path d="M511.997156 925.895111c-228.580504 0-413.897007-185.317452-413.897008-413.902696 0-228.589985 185.317452-413.887526 413.897008-413.887526 228.595674 0 413.902696 185.296593 413.902696 413.887526 0 228.585244-185.307022 413.902696-413.902696 413.902696z m0.005688-776.047881c-200.005215 0-362.160356 162.139022-362.160355 362.155614 0 200.010904 162.155141 362.165096 362.160355 362.165097 200.021333 0 362.165096-162.155141 362.165097-362.165097 0-200.016593-162.143763-362.155615-362.165097-362.155614z m-0.005688 546.096355c-101.5808 0-183.94643-82.3552-183.94643-183.95117s82.36563-183.956859 183.94643-183.956859c101.59597 0 183.9616 82.360889 183.9616 183.956859S613.594074 695.943585 511.997156 695.943585z" p-id="93827" fill="#1296db"></path></svg>