<?xml version="1.0" standalone="no"?><!DOCTYPE svg PUBLIC "-//W3C//DTD SVG 1.1//EN" "http://www.w3.org/Graphics/SVG/1.1/DTD/svg11.dtd"><svg t="1619597969710" class="icon" viewBox="0 0 1024 1024" version="1.1" xmlns="http://www.w3.org/2000/svg" p-id="95212" xmlns:xlink="http://www.w3.org/1999/xlink" width="32" height="32"><defs><style type="text/css"></style></defs><path d="M512 192c-176.7 0-320 143.3-320 320s143.3 320 320 320 320-143.3 320-320-143.3-320-320-320z m176.8 459.9c9.8 9.8 9.8 25.9 0 35.7l-0.5 0.5c-9.8 9.8-25.9 9.8-35.7 0L516.2 551.6 379.7 688.1c-9.8 9.8-25.9 9.8-35.7 0l-0.5-0.5c-9.8-9.8-9.8-25.9 0-35.7L480 515.4 343.5 379c-9.8-9.8-9.8-25.9 0-35.7l0.5-0.5c9.8-9.8 25.9-9.8 35.7 0l136.4 136.4 136.4-136.4c9.8-9.8 25.9-9.8 35.7 0l0.5 0.5c9.8 9.8 9.8 25.9 0 35.7L552.3 515.4l136.5 136.5z" fill="#1296db" p-id="95213"></path></svg>