<?xml version="1.0" standalone="no"?><!DOCTYPE svg PUBLIC "-//W3C//DTD SVG 1.1//EN" "http://www.w3.org/Graphics/SVG/1.1/DTD/svg11.dtd"><svg t="1619598215060" class="icon" viewBox="0 0 1024 1024" version="1.1" xmlns="http://www.w3.org/2000/svg" p-id="99070" xmlns:xlink="http://www.w3.org/1999/xlink" width="32" height="32"><defs><style type="text/css"></style></defs><path d="M512.768 0c-19.66 0-38.91 1.178-57.853 3.43a510.285 510.285 0 0 0-133.011 33.586s345.48 340.616 354.645 353.262V27.135A510.797 510.797 0 0 0 512.717 0.05z" fill="#FB5452" p-id="99071"></path><path d="M873.556 147.96a509.927 509.927 0 0 0-161.17-108.23s2.56 484.122 0 499.533l257.882-256.858a507.827 507.827 0 0 0-96.66-134.444z" fill="#6367F0" p-id="99072"></path><path d="M986.754 322.697s-341.743 344.2-354.542 353.365h364.577a504.192 504.192 0 0 0 27.134-163.217c0.051-19.558-1.177-38.808-3.43-57.7a502.554 502.554 0 0 0-33.74-132.448z" fill="#5283EF" p-id="99073"></path><path d="M479.746 714.307l257.881 256.857a507.571 507.571 0 0 0 135.008-96.302c13.823-13.823 26.52-28.261 38.449-43.21a508.032 508.032 0 0 0 70.14-117.397s-485.863 2.56-501.478 0z" fill="#02B1FF" p-id="99074"></path><path d="M347.451 633.62v363.245a509.107 509.107 0 0 0 163.832 27.084c19.558 0 38.86-1.229 57.802-3.43a509.927 509.927 0 0 0 132.96-33.637S356.667 646.368 347.45 633.62z" fill="#65D020" p-id="99075"></path><path d="M311.204 482.075L53.424 738.933A502.964 502.964 0 0 0 193.45 911.826a506.599 506.599 0 0 0 117.856 69.885s-2.56-484.072-0.102-499.636z" fill="#9AD122" p-id="99076"></path><path d="M17.586 379.424A505.677 505.677 0 0 0 0.026 511.36c0 19.455 1.228 38.756 3.481 57.597a498.663 498.663 0 0 0 33.79 132.448s341.692-344.15 354.491-353.262H27.16c-3.584 10.24-6.655 20.735-9.574 31.23z" fill="#FEC817" p-id="99077"></path><path d="M254.989 70.192a507.367 507.367 0 0 0-106.081 80.84A507.725 507.725 0 0 0 40.216 311.69s486.017-2.56 501.53-0.051L283.916 54.73c-9.78 4.915-19.456 10.035-28.927 15.462z" fill="#FE7612" p-id="99078"></path></svg>