<?xml version="1.0" standalone="no"?><!DOCTYPE svg PUBLIC "-//W3C//DTD SVG 1.1//EN" "http://www.w3.org/Graphics/SVG/1.1/DTD/svg11.dtd"><svg t="1619598276346" class="icon" viewBox="0 0 1024 1024" version="1.1" xmlns="http://www.w3.org/2000/svg" p-id="99834" xmlns:xlink="http://www.w3.org/1999/xlink" width="32" height="32"><defs><style type="text/css"></style></defs><path d="M512 963.764706a451.764706 451.764706 0 1 0 0-903.529412 451.764706 451.764706 0 0 0 0 903.529412z m0-60.235294a391.529412 391.529412 0 1 1 0-783.058824 391.529412 391.529412 0 0 1 0 783.058824z" fill="#1296db" p-id="99835"></path><path d="M240.941176 481.882353m30.117648 0l481.882352 0q30.117647 0 30.117648 30.117647l0 0q0 30.117647-30.117648 30.117647l-481.882352 0q-30.117647 0-30.117648-30.117647l0 0q0-30.117647 30.117648-30.117647Z" fill="#1296db" p-id="99836"></path></svg>