<?xml version="1.0" standalone="no"?><!DOCTYPE svg PUBLIC "-//W3C//DTD SVG 1.1//EN" "http://www.w3.org/Graphics/SVG/1.1/DTD/svg11.dtd"><svg t="1619598355140" class="icon" viewBox="0 0 1028 1024" version="1.1" xmlns="http://www.w3.org/2000/svg" p-id="101446" xmlns:xlink="http://www.w3.org/1999/xlink" width="32.125" height="32"><defs><style type="text/css"></style></defs><path d="M361.411765 423.529412v-122.352941q0-24.470588 16.941176-42.352942t43.294118-17.882353h481.882353q24.470588 0 42.352941 17.882353T963.764706 301.176471v662.588235q0 26.352941-17.882353 43.294118t-42.352941 16.941176H421.647059q-26.352941 0-43.294118-16.941176t-16.941176-43.294118v-120.470588h60.235294v120.470588h481.882353V301.176471H421.647059v122.352941h-60.235294M0 120.470588q0-24.470588 16.941176-42.352941T60.235294 60.235294h481.882353q24.470588 0 42.352941 17.882353T602.352941 120.470588v60.235294h-60.235294V120.470588H60.235294v662.588236h180.705882v60.235294H60.235294q-26.352941 0-43.294118-16.941177t-16.941176-43.294117V120.470588m272.941176 481.882353h359.529412l-141.17647-128q-20.705882-22.588235 0-43.294117 9.411765-9.411765 20.705882-9.411765t20.705882 9.411765l173.176471 156.235294q16.941176 18.823529 16.941176 43.294117t-16.941176 43.294118l-173.176471 161.882353q-9.411765 9.411765-20.705882 9.411765-5.647059 0-20.705882-9.411765-20.705882-22.588235 0-43.294118l141.17647-129.882353H272.941176q-30.117647 0-30.117647-30.117647t30.117647-30.117647z" p-id="101447" fill="#bfbfbf"></path></svg>