<?xml version="1.0" standalone="no"?><!DOCTYPE svg PUBLIC "-//W3C//DTD SVG 1.1//EN" "http://www.w3.org/Graphics/SVG/1.1/DTD/svg11.dtd"><svg t="1619598692797" class="icon" viewBox="0 0 1024 1024" version="1.1" xmlns="http://www.w3.org/2000/svg" p-id="107271" xmlns:xlink="http://www.w3.org/1999/xlink" width="32" height="32"><defs><style type="text/css"></style></defs><path d="M512 405.333333A106.666667 106.666667 0 1 1 405.333333 512 106.666667 106.666667 0 0 1 512 405.333333M512 341.333333a170.666667 170.666667 0 1 0 170.666667 170.666667 170.666667 170.666667 0 0 0-170.666667-170.666667z" p-id="107272" fill="#1296db"></path><path d="M512 234.666667c170.666667 0 324.693333 185.173333 384 264.96a20.48 20.48 0 0 1 0 24.746666c-58.453333 79.786667-213.333333 264.96-384 264.96s-324.693333-185.173333-384-264.96a20.48 20.48 0 0 1 0-24.746666C187.306667 419.84 341.333333 234.666667 512 234.666667M512 170.666667C315.306667 170.666667 147.2 366.933333 77.226667 461.653333a85.333333 85.333333 0 0 0 0 100.693334C147.2 657.066667 315.306667 853.333333 512 853.333333s364.8-196.266667 434.773333-290.986666a85.333333 85.333333 0 0 0 0-100.693334C876.8 366.933333 708.693333 170.666667 512 170.666667z" p-id="107273" fill="#1296db"></path><path d="M200.96 883.626667L170.666667 853.333333a42.666667 42.666667 0 0 1 0-60.16l652.373333-652.8L853.333333 170.666667a42.666667 42.666667 0 0 1 0 60.16z" p-id="107274" fill="#1296db"></path></svg>