<?xml version="1.0" standalone="no"?><!DOCTYPE svg PUBLIC "-//W3C//DTD SVG 1.1//EN" "http://www.w3.org/Graphics/SVG/1.1/DTD/svg11.dtd"><svg t="1619598582391" class="icon" viewBox="0 0 1024 1024" version="1.1" xmlns="http://www.w3.org/2000/svg" p-id="104903" xmlns:xlink="http://www.w3.org/1999/xlink" width="32" height="32"><defs><style type="text/css"></style></defs><path d="M513.536 240.64C228.352 240.64 56.32 531.456 56.32 531.456S254.976 814.08 513.536 814.08s457.728-282.112 457.728-282.112S798.72 240.64 513.536 240.64z m294.4 397.824c-95.232 80.384-196.096 130.56-296.96 130.56s-202.24-47.616-296.96-130.56c-32.768-29.696-65.536-59.392-92.16-92.16-6.144-6.144-8.704-11.776-14.848-17.92 3.072-6.144 8.704-11.776 11.776-17.92C142.336 478.208 172.032 445.44 204.8 415.744 296.96 332.8 397.824 282.112 510.976 282.112s214.016 50.688 306.176 133.632c32.768 29.696 59.392 62.464 86.016 95.232 3.072 6.144 8.704 11.776 11.776 17.92-3.072 6.144-8.704 11.776-14.848 17.92-26.624 29.184-56.32 61.952-92.16 91.648z" p-id="104904" fill="#1296db"></path><path d="M513.536 369.664c-89.088 0-157.696 71.168-157.696 157.696 0 89.088 71.168 157.696 157.696 157.696 89.088 0 157.696-71.168 157.696-157.696s-71.168-157.696-157.696-157.696z m0 273.408c-62.464 0-113.152-50.688-113.152-113.152s50.688-113.152 113.152-113.152 113.152 50.688 113.152 113.152c0 59.904-50.688 113.152-113.152 113.152z" p-id="104905" fill="#1296db"></path></svg>