<?xml version="1.0" standalone="no"?><!DOCTYPE svg PUBLIC "-//W3C//DTD SVG 1.1//EN" "http://www.w3.org/Graphics/SVG/1.1/DTD/svg11.dtd"><svg t="1619599059421" class="icon" viewBox="0 0 1024 1024" version="1.1" xmlns="http://www.w3.org/2000/svg" p-id="114606" xmlns:xlink="http://www.w3.org/1999/xlink" width="32" height="32"><defs><style type="text/css"></style></defs><path d="M280.5 871.691v-740h500v87h-402v230h348v87h-348v336h-98z" p-id="114607" fill="#1296db"></path><path d="M444.477 782.328c8.906 0 16.553 1.807 22.939 5.42s11.221 8.75 14.502 15.41 4.922 14.482 4.922 23.467c0 6.641-0.899 12.676-2.695 18.105-1.797 5.43-4.493 10.137-8.086 14.121-3.594 3.984-8.008 7.031-13.242 9.141-5.235 2.109-11.231 3.164-17.988 3.164-6.719 0-12.735-1.084-18.047-3.252-5.313-2.168-9.747-5.225-13.301-9.17-3.555-3.945-6.24-8.691-8.057-14.238s-2.725-11.543-2.725-17.988c0-6.602 0.947-12.656 2.842-18.164 1.894-5.508 4.638-10.195 8.232-14.063 3.593-3.867 7.969-6.826 13.125-8.877s11.017-3.076 17.579-3.076z m24.727 44.18c0-6.289-1.016-11.738-3.047-16.348-2.032-4.609-4.932-8.096-8.701-10.459-3.77-2.363-8.096-3.545-12.979-3.545-3.477 0-6.69 0.654-9.639 1.963-2.95 1.309-5.489 3.213-7.617 5.713-2.129 2.5-3.809 5.693-5.039 9.58s-1.846 8.252-1.846 13.096c0 4.883 0.615 9.297 1.846 13.242s2.968 7.217 5.215 9.814c2.246 2.598 4.824 4.541 7.734 5.83 2.91 1.289 6.103 1.934 9.58 1.934 4.453 0 8.544-1.113 12.275-3.34 3.73-2.227 6.699-5.664 8.906-10.313 2.208-4.648 3.312-10.37 3.312-17.167zM524.398 792.758l33.457 50.625v-51.094c0-3.32 0.713-5.811 2.139-7.471s3.35-2.49 5.771-2.49c2.5 0 4.473 0.83 5.918 2.49s2.168 4.15 2.168 7.471v67.559c0 7.539-3.125 11.309-9.375 11.309-1.563 0-2.969-0.226-4.219-0.674-1.25-0.45-2.422-1.162-3.516-2.139s-2.109-2.119-3.047-3.428-1.875-2.646-2.813-4.014l-32.637-50.039v50.332c0 3.281-0.762 5.762-2.285 7.441-1.523 1.679-3.477 2.52-5.859 2.52-2.461 0-4.434-0.85-5.918-2.549-1.485-1.699-2.227-4.17-2.227-7.412v-66.27c0-2.813 0.312-5.02 0.938-6.621 0.742-1.758 1.972-3.193 3.691-4.307 1.718-1.113 3.574-1.67 5.566-1.67 1.562 0 2.9 0.254 4.013 0.762s2.09 1.191 2.93 2.051 1.699 1.973 2.578 3.34 1.79 2.793 2.727 4.278zM648.676 798.148h-18.984v62.402c0 3.594-0.801 6.26-2.402 7.998-1.602 1.737-3.672 2.607-6.211 2.607-2.578 0-4.678-0.879-6.299-2.637s-2.432-4.414-2.432-7.969v-62.402h-18.984c-2.969 0-5.176-0.654-6.621-1.963s-2.168-3.037-2.168-5.186c0-2.227 0.752-3.984 2.256-5.273s3.682-1.934 6.533-1.934h55.313c3.008 0 5.244 0.664 6.709 1.992s2.197 3.066 2.197 5.215-0.742 3.877-2.227 5.186-3.711 1.964-6.68 1.964z" p-id="114608" fill="#1296db"></path></svg>