<?xml version="1.0" standalone="no"?><!DOCTYPE svg PUBLIC "-//W3C//DTD SVG 1.1//EN" "http://www.w3.org/Graphics/SVG/1.1/DTD/svg11.dtd"><svg t="1619599824682" class="icon" viewBox="0 0 1024 1024" version="1.1" xmlns="http://www.w3.org/2000/svg" p-id="130301" xmlns:xlink="http://www.w3.org/1999/xlink" width="32" height="32"><defs><style type="text/css"></style></defs><path d="M493.714 643.109v-21.395a18.286 18.286 0 1 1 36.572 0v21.395a54.857 54.857 0 1 1-36.572 0zM310.857 457.143v-128a201.143 201.143 0 0 1 402.286 0v128h91.428a18.286 18.286 0 0 1 18.286 18.286v402.285A18.286 18.286 0 0 1 804.571 896H219.43a18.286 18.286 0 0 1-18.286-18.286V475.43a18.286 18.286 0 0 1 18.286-18.286h91.428z m365.714 0v-128a164.571 164.571 0 1 0-329.142 0v128H676.57z m-438.857 36.571V859.43h548.572V493.714H237.714zM512 713.143a18.286 18.286 0 1 0 0-36.572 18.286 18.286 0 0 0 0 36.572z" p-id="130302" fill="#1296db"></path></svg>