<?xml version="1.0" standalone="no"?><!DOCTYPE svg PUBLIC "-//W3C//DTD SVG 1.1//EN" "http://www.w3.org/Graphics/SVG/1.1/DTD/svg11.dtd"><svg t="1619599963714" class="icon" viewBox="0 0 1024 1024" version="1.1" xmlns="http://www.w3.org/2000/svg" p-id="133731" xmlns:xlink="http://www.w3.org/1999/xlink" width="32" height="32"><defs><style type="text/css"></style></defs><path d="M1015.125333 460.117333C990.458311 203.889778 774.872178 8.510578 517.461333 9.102222c-16.611556 0-33.450667 0-50.062222 2.503111C202.1376 38.229333 4.278044 268.060444 17.385244 534.3232c13.084444 266.285511 232.561778 475.591111 499.165867 476.023467 16.611556 0 33.450667 0 50.062222-2.503111 275.091911-27.420444 475.886933-272.611556 448.512-547.726223z m-455.111111 479.687111c-15.177956 1.524622-29.582222 2.207289-43.235555 2.048-230.650311 0.159289-420.818489-180.792889-432.128-411.170133C73.341156 300.305067 244.895289 101.603556 474.453333 79.189333c15.177956-1.524622 29.582222-2.207289 43.235556-2.048 230.650311-0.159289 420.818489 180.792889 432.128 411.170134 11.309511 230.377244-160.244622 429.078756-389.802667 451.492977z" fill="#bfbfbf" p-id="133732"></path><path d="M733.184 486.968889h-432.355556a34.133333 34.133333 0 0 0 0 68.266667h432.355556a34.133333 34.133333 0 0 0 0-68.266667zM733.184 350.435556h-432.355556a34.133333 34.133333 0 0 0 0 68.266666h432.355556a34.133333 34.133333 0 0 0 0-68.266666zM733.184 623.502222h-432.355556a34.133333 34.133333 0 0 0 0 68.266667h432.355556a34.133333 34.133333 0 0 0 0-68.266667z" fill="#bfbfbf" p-id="133733"></path></svg>