<?xml version="1.0" standalone="no"?><!DOCTYPE svg PUBLIC "-//W3C//DTD SVG 1.1//EN" "http://www.w3.org/Graphics/SVG/1.1/DTD/svg11.dtd"><svg t="1619600315435" class="icon" viewBox="0 0 1024 1024" version="1.1" xmlns="http://www.w3.org/2000/svg" p-id="137033" xmlns:xlink="http://www.w3.org/1999/xlink" width="32" height="32"><defs><style type="text/css"></style></defs><path d="M704 512v384h64V512h160l-192-192-192 192zM64 192h96v64H64V192zM192 192h96v64H192V192zM320 192h64v96h-64V192zM64 416h64v96H64v-96zM160 448h96v64H160v-64zM288 448h96v64h-96v-64zM64 288h64v96H64v-96zM320 320h64v96h-64v-96zM320 704v192H128v-192h192z m64-64H64v320h320V640z" p-id="137034" fill="#bfbfbf"></path></svg>