<?xml version="1.0" standalone="no"?><!DOCTYPE svg PUBLIC "-//W3C//DTD SVG 1.1//EN" "http://www.w3.org/Graphics/SVG/1.1/DTD/svg11.dtd"><svg t="1619600203914" class="icon" viewBox="0 0 1024 1024" version="1.1" xmlns="http://www.w3.org/2000/svg" p-id="135489" xmlns:xlink="http://www.w3.org/1999/xlink" width="32" height="32"><defs><style type="text/css"></style></defs><path d="M768 704V320h-64v384H544l192 192 192-192zM320 256v192H128V256h192z m64-64H64v320h320V192z m-320 448h96v64H64v-64z m128 0h96v64H192v-64z m128 0h64v96H320V640z m-256 224h64V960H64v-96z m96 32H256v64H160v-64z m128 0H384v64H288v-64zM64 736h64V832H64v-96z m256 32h64v96H320V768z" p-id="135490" fill="#1296db"></path></svg>