<?xml version="1.0" standalone="no"?><!DOCTYPE svg PUBLIC "-//W3C//DTD SVG 1.1//EN" "http://www.w3.org/Graphics/SVG/1.1/DTD/svg11.dtd"><svg t="1619600623699" class="icon" viewBox="0 0 1024 1024" version="1.1" xmlns="http://www.w3.org/2000/svg" p-id="141120" width="32" height="32" xmlns:xlink="http://www.w3.org/1999/xlink"><defs><style type="text/css"></style></defs><path d="M192 106.666667a106.666667 106.666667 0 0 1 21.354667 211.2L213.333333 469.312 320 469.333333a21.333333 21.333333 0 0 1 21.333333 21.333334v42.666666a21.333333 21.333333 0 0 1-21.333333 21.333334l-106.666667-0.021334V789.333333h106.666667a21.333333 21.333333 0 0 1 21.333333 21.333334v42.666666a21.333333 21.333333 0 0 1-21.333333 21.333334l-85.333333-0.021334V874.666667h-21.333334a85.333333 85.333333 0 0 1-85.333333-85.333334V298.666667a106.666667 106.666667 0 0 1 64-192z m725.333333 682.666666a21.333333 21.333333 0 0 1 21.333334 21.333334v42.666666a21.333333 21.333333 0 0 1-21.333334 21.333334H469.333333a21.333333 21.333333 0 0 1-21.333333-21.333334v-42.666666a21.333333 21.333333 0 0 1 21.333333-21.333334h448z m0-320a21.333333 21.333333 0 0 1 21.333334 21.333334v42.666666a21.333333 21.333333 0 0 1-21.333334 21.333334H469.333333a21.333333 21.333333 0 0 1-21.333333-21.333334v-42.666666a21.333333 21.333333 0 0 1 21.333333-21.333334h448z m0-298.666666a21.333333 21.333333 0 0 1 21.333334 21.333333v42.666667a21.333333 21.333333 0 0 1-21.333334 21.333333H469.333333a21.333333 21.333333 0 0 1-21.333333-21.333333V192a21.333333 21.333333 0 0 1 21.333333-21.333333h448z" p-id="141121" fill="#1296db"></path></svg>