<?xml version="1.0" standalone="no"?><!DOCTYPE svg PUBLIC "-//W3C//DTD SVG 1.1//EN" "http://www.w3.org/Graphics/SVG/1.1/DTD/svg11.dtd"><svg t="1619600687644" class="icon" viewBox="0 0 1024 1024" version="1.1" xmlns="http://www.w3.org/2000/svg" p-id="141959" xmlns:xlink="http://www.w3.org/1999/xlink" width="32" height="32"><defs><style type="text/css"></style></defs><path d="M512 0C229.248 0 0 229.248 0 512c0 282.752 229.248 512 512 512s512-229.248 512-512C1024 229.248 794.752 0 512 0zM512 938.666667C276.352 938.666667 85.333333 747.648 85.333333 512 85.333333 276.352 276.352 85.333333 512 85.333333s426.666667 191.018667 426.666667 426.666667C938.666667 747.648 747.648 938.666667 512 938.666667z" p-id="141960" fill="#1296db"></path><path d="M341.333333 341.333333l85.333333 0 0 341.333333-85.333333 0 0-341.333333Z" p-id="141961" fill="#1296db"></path><path d="M597.333333 341.333333l85.333333 0 0 341.333333-85.333333 0 0-341.333333Z" p-id="141962" fill="#1296db"></path></svg>