<?xml version="1.0" standalone="no"?><!DOCTYPE svg PUBLIC "-//W3C//DTD SVG 1.1//EN" "http://www.w3.org/Graphics/SVG/1.1/DTD/svg11.dtd"><svg t="1619600789630" class="icon" viewBox="0 0 1024 1024" version="1.1" xmlns="http://www.w3.org/2000/svg" p-id="143546" xmlns:xlink="http://www.w3.org/1999/xlink" width="32" height="32"><defs><style type="text/css"></style></defs><path d="M512 0c282.768 0 512 229.232 512 512 0 282.768-229.232 512-512 512C229.232 1024 0 794.768 0 512 0 229.232 229.232 0 512 0z m0 96C282.24 96 96 282.24 96 512s186.24 416 416 416 416-186.24 416-416S741.76 96 512 96z m-96 205.152a16 16 0 0 1 8.592 2.496l306.192 194.848a16 16 0 0 1 0 27.008L424.592 720.352A16 16 0 0 1 400 706.848V317.152a16 16 0 0 1 16-16z" p-id="143547" fill="#1296db"></path></svg>