<?xml version="1.0" standalone="no"?><!DOCTYPE svg PUBLIC "-//W3C//DTD SVG 1.1//EN" "http://www.w3.org/Graphics/SVG/1.1/DTD/svg11.dtd"><svg t="1619600873172" class="icon" viewBox="0 0 1024 1024" version="1.1" xmlns="http://www.w3.org/2000/svg" p-id="144575" xmlns:xlink="http://www.w3.org/1999/xlink" width="32" height="32"><defs><style type="text/css"></style></defs><path d="M512 0a512 512 0 1 0 512 512A512 512 0 0 0 512 0z m303.32928 815.34976a427.27424 427.27424 0 1 1 91.97568-136.37632 427.68384 427.68384 0 0 1-91.97568 136.35584z m-99.65568-347.15648H555.008v-160.60416a42.31168 42.31168 0 0 0-42.1888-42.1888 42.31168 42.31168 0 0 0-42.1888 42.1888v160.60416h-160.60416a42.31168 42.31168 0 0 0-42.20928 42.1888 42.33216 42.33216 0 0 0 42.20928 42.20928h160.60416v160.60416a42.31168 42.31168 0 0 0 42.1888 42.1888 42.31168 42.31168 0 0 0 42.1888-42.1888v-160.60416h160.60416a42.33216 42.33216 0 0 0 42.20928-42.20928 42.31168 42.31168 0 0 0-42.14784-42.20928z" p-id="144576" fill="#1296db"></path></svg>