<?xml version="1.0" standalone="no"?><!DOCTYPE svg PUBLIC "-//W3C//DTD SVG 1.1//EN" "http://www.w3.org/Graphics/SVG/1.1/DTD/svg11.dtd"><svg t="1619600919482" class="icon" viewBox="0 0 1024 1024" version="1.1" xmlns="http://www.w3.org/2000/svg" p-id="145962" xmlns:xlink="http://www.w3.org/1999/xlink" width="32" height="32"><defs><style type="text/css"></style></defs><path d="M909.12 209.28l-56.448 44.16a419.008 419.008 0 0 0-330.752-161.408 419.712 419.712 0 0 0-419.904 419.456 419.904 419.904 0 0 0 814.464 144.384 8 8 0 0 0-4.864-10.24l-56.704-19.52a8 8 0 0 0-10.112 4.8 342.144 342.144 0 0 1-79.616 124.288 341.76 341.76 0 0 1-243.072 100.8A341.376 341.376 0 0 1 278.976 755.2a342.144 342.144 0 0 1-100.672-243.328 342.208 342.208 0 0 1 100.672-243.264 341.76 341.76 0 0 1 243.072-100.8 341.376 341.376 0 0 1 243.2 100.8c9.856 9.92 19.2 20.416 27.776 31.36l-60.224 47.04a8 8 0 0 0 3.008 14.08l175.616 43.008a8 8 0 0 0 9.856-7.68l0.832-180.928a8.064 8.064 0 0 0-12.992-6.208z" fill="#1296db" fill-opacity=".65" p-id="145963"></path></svg>