<?xml version="1.0" standalone="no"?><!DOCTYPE svg PUBLIC "-//W3C//DTD SVG 1.1//EN" "http://www.w3.org/Graphics/SVG/1.1/DTD/svg11.dtd"><svg t="1619600983599" class="icon" viewBox="0 0 1024 1024" version="1.1" xmlns="http://www.w3.org/2000/svg" p-id="146776" xmlns:xlink="http://www.w3.org/1999/xlink" width="32" height="32"><defs><style type="text/css"></style></defs><path d="M153.088 327.424c-54.272 54.016-85.504 126.72-87.808 203.008v12.8c1.536 18.688 17.152 33.28 36.096 33.28 19.968 0 36.352-16.128 36.352-36.352 0-60.928 23.808-118.272 66.816-161.28 43.008-43.008 100.352-66.816 161.28-66.816h351.488l-119.808 120.064c-10.496 10.24-13.568 25.856-7.936 39.424 5.632 13.568 18.944 22.272 33.536 22.272 9.472 0 18.432-3.584 25.6-10.496l179.712-179.712c14.08-14.336 14.08-37.12 0-51.456l-185.088-185.088c-6.656-6.912-16.128-10.752-25.6-10.752-9.728 0-18.944 3.84-25.6 10.752-6.912 6.912-10.752 16.128-10.752 25.6 0 9.728 3.84 18.944 10.752 25.6l121.088 121.088H365.568c-79.872-0.256-156.416 31.488-212.48 88.064z" p-id="146777" fill="#1296db"></path><path d="M926.976 436.48c-19.968 0-36.352 16.128-36.352 36.352 0 60.928-23.808 118.272-66.816 161.28-43.008 43.008-100.352 66.816-161.28 66.816H311.04l120.064-120.064c6.912-6.912 10.752-16.128 10.752-25.6s-3.84-18.944-10.752-25.6c-6.912-6.912-16.128-10.752-25.6-10.752-9.728 0-18.944 3.84-25.6 10.752l-179.712 179.712c-14.08 14.336-14.08 37.12 0 51.456l185.088 185.088c7.168 7.168 16.384 10.496 25.6 10.496 14.592 0 27.904-8.704 33.536-22.272 5.632-13.568 2.56-29.184-7.68-39.424l-121.088-121.088H663.04c80.384 0 155.904-31.232 212.736-88.064 56.832-56.832 88.064-132.352 88.064-212.736-0.512-20.224-16.896-36.352-36.864-36.352z" p-id="146778" fill="#1296db"></path></svg>