<?xml version="1.0" standalone="no"?><!DOCTYPE svg PUBLIC "-//W3C//DTD SVG 1.1//EN" "http://www.w3.org/Graphics/SVG/1.1/DTD/svg11.dtd"><svg t="1619601082354" class="icon" viewBox="0 0 1026 1024" version="1.1" xmlns="http://www.w3.org/2000/svg" p-id="149999" xmlns:xlink="http://www.w3.org/1999/xlink" width="32.0625" height="32"><defs><style type="text/css"></style></defs><path d="M1009.162581 785.066667h-136.533333c-10.24 0-17.066667-6.826667-17.066667-17.066667s6.826667-17.066667 17.066667-17.066667H992.095915v-119.466666c0-10.24 6.826667-17.066667 17.066666-17.066667s17.066667 6.826667 17.066667 17.066667v136.533333c0 10.24-6.826667 17.066667-17.066667 17.066667zM565.429248 989.866667h-167.253333c-20.48 0-37.546667-13.653333-40.96-34.133334l-17.066667-116.053333c-23.893333-10.24-47.786667-23.893333-71.68-40.96l-112.64 44.373333c-20.48 6.826667-40.96 0-51.2-17.066666L5.642581 662.186667c-10.24-17.066667-6.826667-40.96 10.24-51.2l95.573334-71.68c0-13.653333-3.413333-27.306667-3.413334-37.546667s0-23.893333 3.413334-37.546667L15.882581 392.533333c-17.066667-13.653333-20.48-34.133333-10.24-54.613333L104.629248 163.84c10.24-17.066667 34.133333-23.893333 51.2-17.066667l112.64 44.373334c23.893333-17.066667 47.786667-30.72 71.68-40.96l17.066667-116.053334c3.413333-20.48 20.48-34.133333 40.96-34.133333h197.973333c20.48 0 37.546667 13.653333 40.96 34.133333l17.066667 116.053334c23.893333 10.24 47.786667 23.893333 71.68 40.96l112.64-44.373334c20.48-6.826667 40.96 0 51.2 17.066667l98.986666 163.84c10.24 17.066667 6.826667 40.96-10.24 51.2l-95.573333 71.68c0 10.24 3.413333 23.893333 3.413333 37.546667V498.346667c0 6.826667-3.413333 10.24-6.826666 13.653333-3.413333 3.413333-10.24 3.413333-13.653334 3.413333-64.853333-17.066667-129.706667-13.653333-191.146666 17.066667-6.826667 3.413333-13.653333 3.413333-17.066667-3.413333-6.826667-3.413333-6.826667-10.24-6.826667-17.066667 3.413333-13.653333 6.826667-27.306667 6.826667-40.96 0-95.573333-75.093333-170.666667-170.666667-170.666667s-170.666667 75.093333-170.666666 170.666667c0 109.226667 98.986667 194.56 211.626666 163.84 6.826667 0 13.653333 0 17.066667 6.826667 3.413333 6.826667 3.413333 13.653333 3.413333 17.066666-23.893333 44.373333-34.133333 85.333333-34.133333 126.293334 0 64.853333 23.893333 126.293333 64.853333 177.493333 3.413333 3.413333 6.826667 13.653333 3.413334 17.066667-3.413333 6.826667-10.24 10.24-17.066667 10.24z m-293.546667-228.693334c3.413333 0 6.826667 0 10.24 3.413334 23.893333 17.066667 51.2 34.133333 78.506667 44.373333 6.826667 3.413333 10.24 6.826667 10.24 13.653333l17.066667 126.293334c0 3.413333 3.413333 6.826667 6.826666 6.826666h133.12c-34.133333-51.2-51.2-109.226667-51.2-170.666666 0-34.133333 6.826667-71.68 17.066667-102.4-116.053333 10.24-218.453333-85.333333-218.453333-204.8 0-112.64 92.16-204.8 204.8-204.8s204.8 92.16 204.8 204.8v17.066666c51.2-20.48 109.226667-23.893333 163.84-10.24 0-13.653333-3.413333-23.893333-3.413334-34.133333 0-6.826667 3.413333-13.653333 6.826667-17.066667l102.4-78.506666c3.413333-3.413333 3.413333-6.826667 0-10.24L855.562581 180.906667c-3.413333-3.413333-6.826667-3.413333-10.24-3.413334l-122.88 47.786667c-6.826667 3.413333-10.24 0-17.066666-3.413333-23.893333-17.066667-51.2-34.133333-78.506667-44.373334-6.826667-3.413333-10.24-6.826667-10.24-13.653333l-17.066667-126.293333c0-3.413333-3.413333-6.826667-6.826666-6.826667h-197.973334c-3.413333 0-6.826667 3.413333-6.826666 6.826667l-17.066667 126.293333c0 6.826667-3.413333 10.24-10.24 13.653333-23.893333 13.653333-51.2 27.306667-78.506667 47.786667-3.413333 3.413333-10.24 3.413333-13.653333 0L145.589248 177.493333c-3.413333 0-6.826667 0-10.24 3.413334L36.362581 348.16c-3.413333 3.413333 0 6.826667 0 6.826667l102.4 78.506666c3.413333 3.413333 6.826667 10.24 6.826667 17.066667-3.413333 17.066667-3.413333 30.72-3.413333 44.373333s0 27.306667 3.413333 44.373334c0 6.826667-3.413333 13.653333-6.826667 17.066666l-102.4 78.506667v6.826667l98.986667 163.84c3.413333 3.413333 6.826667 3.413333 10.24 3.413333l122.88-47.786667h3.413333z" p-id="150000" fill="#1296db"></path><path d="M787.295915 1024c-133.12 0-238.933333-105.813333-238.933334-238.933333s105.813333-238.933333 238.933334-238.933334c119.466667 0 218.453333 88.746667 235.52 204.8 0 10.24-3.413333 17.066667-13.653334 20.48-10.24 0-17.066667-3.413333-20.48-13.653333-13.653333-102.4-98.986667-177.493333-201.386666-177.493333-112.64 0-204.8 92.16-204.8 204.8s92.16 204.8 204.8 204.8c10.24 0 17.066667 6.826667 17.066666 17.066666s-6.826667 17.066667-17.066666 17.066667z" p-id="150001" fill="#1296db"></path></svg>