<?xml version="1.0" standalone="no"?><!DOCTYPE svg PUBLIC "-//W3C//DTD SVG 1.1//EN" "http://www.w3.org/Graphics/SVG/1.1/DTD/svg11.dtd"><svg t="1619601942635" class="icon" viewBox="0 0 1024 1024" version="1.1" xmlns="http://www.w3.org/2000/svg" p-id="169925" xmlns:xlink="http://www.w3.org/1999/xlink" width="32" height="32"><defs><style type="text/css"></style></defs><path d="M928 774.4V249.6c57.6-12.8 96-64 96-121.6 0-70.4-57.6-128-128-128-57.6 0-108.8 38.4-121.6 96H249.6C236.8 38.4 185.6 0 128 0 57.6 0 0 57.6 0 128c0 57.6 38.4 108.8 96 121.6V768c-57.6 19.2-96 70.4-96 128 0 70.4 57.6 128 128 128 57.6 0 108.8-38.4 121.6-96H768c12.8 57.6 64 96 121.6 96 70.4 0 128-57.6 128-128 6.4-57.6-32-108.8-89.6-121.6zM896 64c38.4 0 64 25.6 64 64s-25.6 64-64 64-64-25.6-64-64 25.6-64 64-64zM64 128c0-38.4 25.6-64 64-64s64 25.6 64 64-25.6 64-64 64-64-25.6-64-64z m64 832c-38.4 0-64-25.6-64-64s25.6-64 64-64 64 25.6 64 64-25.6 64-64 64z m646.4-96H249.6c-12.8-44.8-44.8-76.8-89.6-89.6V249.6c44.8-12.8 76.8-44.8 89.6-89.6H768c12.8 44.8 44.8 76.8 89.6 89.6V768c-38.4 19.2-70.4 51.2-83.2 96zM896 960c-38.4 0-64-25.6-64-64s25.6-64 64-64 64 25.6 64 64-25.6 64-64 64z" p-id="169926" fill="#1296db"></path></svg>