<?xml version="1.0" standalone="no"?><!DOCTYPE svg PUBLIC "-//W3C//DTD SVG 1.1//EN" "http://www.w3.org/Graphics/SVG/1.1/DTD/svg11.dtd"><svg t="1619602053422" class="icon" viewBox="0 0 1024 1024" version="1.1" xmlns="http://www.w3.org/2000/svg" p-id="172940" xmlns:xlink="http://www.w3.org/1999/xlink" width="32" height="32"><defs><style type="text/css"></style></defs><path d="M433.280098 14.720622h-319.9996a93.439883 93.439883 0 0 0-63.99992 26.239967 90.879886 90.879886 0 0 0-26.879966 63.99992v812.798984a90.879886 90.879886 0 0 0 26.879966 63.99992 93.439883 93.439883 0 0 0 63.99992 26.239967h319.9996a94.079882 94.079882 0 0 0 63.99992-25.599968 92.799884 92.799884 0 0 0 26.879967-63.99992V105.600508a92.799884 92.799884 0 0 0-26.879967-63.99992 90.879886 90.879886 0 0 0-63.99992-25.599968z m26.879967 903.038871a24.31997 24.31997 0 0 1-24.959969 24.959969h-319.9996a24.959969 24.959969 0 0 1-17.919978-7.039992 27.519966 27.519966 0 0 1-7.039991-17.919977V831.9996h218.239727a32.639959 32.639959 0 0 0 31.99996-32.639959 30.079962 30.079962 0 0 0-9.599988-22.399972 27.519966 27.519966 0 0 0-22.399972-8.959989H89.600528v-127.99984h218.879726a33.279958 33.279958 0 0 0 33.279959-33.279958 33.279958 33.279958 0 0 0-33.279959-30.719962H89.600528V448.00008h218.879726a33.279958 33.279958 0 1 0 0-63.99992H89.600528V256.00032h218.879726a31.99996 31.99996 0 0 0 22.399972-8.959989 30.079962 30.079962 0 0 0 9.599988-22.399972 30.719962 30.719962 0 0 0-9.599988-23.039971 30.079962 30.079962 0 0 0-22.399972-9.599988H89.600528V105.600508a24.31997 24.31997 0 0 1 24.959969-24.959969h319.9996a26.239967 26.239967 0 0 1 19.199976 6.399992 25.599968 25.599968 0 0 1 7.67999 18.559977z m383.99952-111.99986V220.160365H959.99944L808.31963 64.00056l-152.959809 153.599808H767.99968v585.599268h-112.639859L808.31963 959.99944l153.599808-153.599808zM648.31983 64.00056h319.9996a30.079962 30.079962 0 0 0 22.399972-9.599988 30.719962 30.719962 0 0 0 9.599988-23.039971 30.079962 30.079962 0 0 0-9.599988-22.399972 31.99996 31.99996 0 0 0-22.399972-8.959989h-319.9996a31.99996 31.99996 0 0 0-22.399972 8.959989 30.079962 30.079962 0 0 0-9.599988 22.399972 30.719962 30.719962 0 0 0 9.599988 23.039971 30.079962 30.079962 0 0 0 22.399972 9.599988z m319.9996 895.99888h-319.9996a32.639959 32.639959 0 0 0-31.99996 31.99996 31.359961 31.359961 0 0 0 9.599988 23.039971 31.99996 31.99996 0 0 0 22.399972 8.959989h319.9996a31.99996 31.99996 0 0 0 22.399972-8.959989 31.359961 31.359961 0 0 0 9.599988-23.039971 32.639959 32.639959 0 0 0-31.99996-31.99996z m0 0" p-id="172941" fill="#1296db"></path></svg>