<?xml version="1.0" standalone="no"?><!DOCTYPE svg PUBLIC "-//W3C//DTD SVG 1.1//EN" "http://www.w3.org/Graphics/SVG/1.1/DTD/svg11.dtd"><svg t="1619601779595" class="icon" viewBox="0 0 1024 1024" version="1.1" xmlns="http://www.w3.org/2000/svg" p-id="168535" xmlns:xlink="http://www.w3.org/1999/xlink" width="32" height="32"><defs><style type="text/css"></style></defs><path d="M416 560H224a48 48 0 1 0 0 96h76.112L61.488 894.624l0.048 0.048A47.84 47.84 0 0 0 48 928a48 48 0 0 0 48 48c12.96 0 24.688-5.2 33.312-13.568l0.048 0.064L368 723.888V800a48 48 0 1 0 96 0V608a48 48 0 0 0-48-48z m192-96h192a48 48 0 1 0 0-96h-76.112L962.512 129.376l-0.048-0.048C970.816 120.688 976 108.96 976 96a48 48 0 0 0-48-48c-12.976 0-24.688 5.2-33.328 13.552l-0.048-0.048L656 300.128V224a48 48 0 1 0-96 0v192a48 48 0 0 0 48 48z m354.512 430.624L723.888 656H800a48 48 0 1 0 0-96H608a48 48 0 0 0-48 48v192a48 48 0 1 0 96 0v-76.112l238.624 238.624 0.048-0.048c8.64 8.352 20.352 13.536 33.328 13.536a48 48 0 0 0 48-48c0-12.976-5.2-24.688-13.568-33.328l0.08-0.048zM416 176a48 48 0 0 0-48 48v76.112L129.376 61.488l-0.048 0.064A47.824 47.824 0 0 0 96 48a48 48 0 0 0-48 48c0 12.96 5.2 24.688 13.552 33.312l-0.064 0.064L300.112 368H224a48 48 0 1 0 0 96h192a48 48 0 0 0 48-48V224a48 48 0 0 0-48-48z" p-id="168536" fill="#1296db"></path></svg>