<?xml version="1.0" standalone="no"?><!DOCTYPE svg PUBLIC "-//W3C//DTD SVG 1.1//EN" "http://www.w3.org/Graphics/SVG/1.1/DTD/svg11.dtd"><svg t="1619602339069" class="icon" viewBox="0 0 1024 1024" version="1.1" xmlns="http://www.w3.org/2000/svg" p-id="174303" xmlns:xlink="http://www.w3.org/1999/xlink" width="32" height="32"><defs><style type="text/css"></style></defs><path d="M128 164c0-19.8 16.2-36 36-36h696c19.8 0 36 16.2 36 36s-16.2 36-36 36H164c-19.8 0-36-16.2-36-36z m255.4 268H860c19.8 0 36-16.2 36-36s-16.2-36-36-36H383.4c-19.8 0-36 16.2-36 36s16.2 36 36 36zM164 664h696c19.8 0 36-16.2 36-36s-16.2-36-36-36H164c-19.8 0-36 16.2-36 36s16.2 36 36 36z m274.3 232H860c19.8 0 36-16.2 36-36s-16.2-36-36-36H438.3c-19.8 0-36 16.2-36 36s16.2 36 36 36z" p-id="174304" fill="#1296db"></path></svg>