<?xml version="1.0" standalone="no"?><!DOCTYPE svg PUBLIC "-//W3C//DTD SVG 1.1//EN" "http://www.w3.org/Graphics/SVG/1.1/DTD/svg11.dtd"><svg t="1619602557910" class="icon" viewBox="0 0 1024 1024" version="1.1" xmlns="http://www.w3.org/2000/svg" p-id="175961" xmlns:xlink="http://www.w3.org/1999/xlink" width="32" height="32"><defs><style type="text/css"></style></defs><path d="M435.2 911.36l-20.48 102.4c-46.08-10.24-87.04-25.6-128-46.08l46.08-92.16c30.72 15.36 66.56 30.72 102.4 35.84z m-307.2-276.48l-102.4 30.72c-5.12-25.6-15.36-51.2-15.36-76.8l102.4-15.36c5.12 20.48 5.12 40.96 15.36 61.44z m112.64 179.2l-71.68 76.8c-35.84-30.72-61.44-66.56-87.04-102.4l87.04-56.32c20.48 30.72 46.08 56.32 71.68 81.92z m583.68-40.96l81.92 66.56c-30.72 35.84-61.44 66.56-102.4 92.16l-61.44-87.04c30.72-20.48 56.32-40.96 81.92-71.68z m81.92-148.48c10.24-35.84 15.36-71.68 15.36-112.64 0-225.28-184.32-404.48-404.48-404.48-87.04 0-174.08 30.72-245.76 81.92l128 128L0 399.36 81.92 0l112.64 112.64C286.72 40.96 394.24 5.12 512 5.12c281.6 0 512 230.4 512 512 0 46.08-5.12 92.16-20.48 138.24-5.12 25.6-15.36 51.2-25.6 71.68l-97.28-46.08c10.24-15.36 15.36-35.84 25.6-56.32z" p-id="175962" fill="#1296db"></path><path d="M680.96 993.28c-40.96 15.36-87.04 25.6-133.12 25.6l-5.12-102.4 107.52-20.48 30.72 97.28z" p-id="175963" fill="#1296db"></path></svg>