<?xml version="1.0" standalone="no"?><!DOCTYPE svg PUBLIC "-//W3C//DTD SVG 1.1//EN" "http://www.w3.org/Graphics/SVG/1.1/DTD/svg11.dtd"><svg t="1619602495338" class="icon" viewBox="0 0 1024 1024" version="1.1" xmlns="http://www.w3.org/2000/svg" p-id="175146" xmlns:xlink="http://www.w3.org/1999/xlink" width="32" height="32"><defs><style type="text/css"></style></defs><path d="M77.52704 450.56H639.2832c12.41088 0 24.32 4.608 33.09568 12.81024 8.77568 8.21248 13.71136 19.34336 13.71136 30.94528v393.76896C686.08 912.25088 665.11872 931.84 639.27296 931.84H77.5168C51.68128 931.84 30.72 912.25088 30.72 888.08448V494.31552c0-11.60192 4.93568-22.7328 13.71136-30.94528A48.52736 48.52736 0 0 1 77.5168 450.56z m46.81728 87.5008v306.2784h468.11136v-306.2784H124.34432zM570.78784 269.50656v69.28384a9.1136 9.1136 0 0 1-5.19168 8.16128 9.6256 9.6256 0 0 1-9.8304-0.86016L392.86784 227.34848a9.05216 9.05216 0 0 1-3.75808-7.31136c0-2.8672 1.39264-5.5808 3.75808-7.30112L555.75552 93.98272a9.6256 9.6256 0 0 1 9.84064-0.86016 9.1136 9.1136 0 0 1 5.19168 8.17152v76.86144C804.17792 178.33984 993.28 362.31168 993.28 589.2096c0 16.32256-8.94976 31.39584-23.49056 39.55712a48.14848 48.14848 0 0 1-46.98112 0c-14.5408-8.16128-23.49056-23.2448-23.49056-39.55712 0-176.4352-147.03616-319.51872-328.52992-319.6928z" p-id="175147" fill="#1296db"></path></svg>