<?xml version="1.0" standalone="no"?><!DOCTYPE svg PUBLIC "-//W3C//DTD SVG 1.1//EN" "http://www.w3.org/Graphics/SVG/1.1/DTD/svg11.dtd"><svg t="1619602693216" class="icon" viewBox="0 0 1024 1024" version="1.1" xmlns="http://www.w3.org/2000/svg" p-id="180063" xmlns:xlink="http://www.w3.org/1999/xlink" width="32" height="32"><defs><style type="text/css"></style></defs><path d="M788.266667 276.778667a347.008 347.008 0 0 0-263.722667-120.192c-136.277333 0-253.482667 78.634667-313.6 192.896-7.253333 8.917333-17.536 16.341333-29.269333 16.341333a33.365333 33.365333 0 0 1-33.706667-34.133333 35.84 35.84 0 0 1 2.944-13.354667C222.72 178.773333 363.392 85.333333 524.544 85.333333c123.050667 0 232.96 53.418667 310.613333 139.52l23.466667-25.258666c14.592-28.16 18.986667-44.501333 32.213333-44.501334 13.184 0 10.24 11.861333 16.085334 44.501334l10.24 192.938666c5.888 62.293333-17.536 35.626667-24.874667 26.709334-14.677333-20.778667-104.021333-142.464-104.021333-142.464zM259.328 750.208A347.008 347.008 0 0 0 523.093333 870.4c134.826667 0 253.482667-77.184 312.106667-189.952a33.365333 33.365333 0 0 1 63.018667 16.341333c0 7.381333-2.986667 13.312-7.338667 19.285334C820.48 848.128 681.301333 938.666667 521.6 938.666667c-123.093333 0-232.96-53.418667-310.613333-139.52l-23.466667 25.258666c-14.634667 28.16-19.029333 44.501333-32.213333 44.501334-13.226667 0-10.24-11.861333-16.128-44.501334l-10.24-192.938666c-5.888-62.293333 17.578667-35.626667 24.917333-26.709334 8.789333 10.368 105.472 145.450667 105.472 145.450667z m126.549333-458.666667h291.413334a42.666667 42.666667 0 0 1 42.666666 42.666667v350.805333a42.666667 42.666667 0 0 1-42.666666 42.666667h-291.413334a42.666667 42.666667 0 0 1-42.666666-42.666667V334.165333a42.666667 42.666667 0 0 1 42.666666-42.666666zM422.826667 350.293333a21.333333 21.333333 0 0 0-21.333334 21.333334v276.053333a21.333333 21.333333 0 0 0 21.333334 21.333333h219.562666a21.333333 21.333333 0 0 0 21.333334-21.333333V371.626667a21.333333 21.333333 0 0 0-21.333334-21.333334H422.826667z" fill="#1296db" p-id="180064"></path></svg>