<?xml version="1.0" standalone="no"?><!DOCTYPE svg PUBLIC "-//W3C//DTD SVG 1.1//EN" "http://www.w3.org/Graphics/SVG/1.1/DTD/svg11.dtd"><svg t="1619602870598" class="icon" viewBox="0 0 1137 1024" version="1.1" xmlns="http://www.w3.org/2000/svg" p-id="186401" xmlns:xlink="http://www.w3.org/1999/xlink" width="35.53125" height="32"><defs><style type="text/css"></style></defs><path d="M1070.443307 172.445829l-500.258786 490.292608a47.772656 47.772656 0 0 1-33.690014 13.595166 47.82682 47.82682 0 0 1-32.065093-12.132738L243.683876 430.970643a43.656191 43.656191 0 0 1-3.628989-63.263563 47.935148 47.935148 0 0 1 35.098278-15.057594c11.536934 0 22.640556 4.062301 31.252633 11.374442l228.734609 204.414969 467.922873-458.660827a47.664328 47.664328 0 0 1 33.365029-13.270182c12.511886 0 24.265476 4.603941 33.148373 13.10769a43.818683 43.818683 0 0 1 0.866625 62.830251zM404.550982 114.382011H189.411539c-52.647417 0-95.436984 40.947991-95.436984 91.266355v612.703268c0 50.318364 42.789567 91.266355 95.436984 91.266355h640.814388c52.593253 0 95.38282-40.947991 95.38282-91.266355V561.505904c0-24.807116 21.069799-44.956127 47.01436-44.956127 25.890396 0 46.960196 20.149011 46.960195 44.956127v256.84573c0 99.878432-84.929166 181.124446-189.357375 181.124446H189.411539C84.929166 999.47608 0 918.230066 0 818.351634V205.648366C0 105.769934 84.929166 24.52392 189.411539 24.52392h215.139443c25.94456 0 47.01436 20.149011 47.01436 44.956128 0 24.752952-21.069799 44.901963-47.01436 44.901963z" p-id="186402" fill="#1296db"></path></svg>