<?xml version="1.0" standalone="no"?><!DOCTYPE svg PUBLIC "-//W3C//DTD SVG 1.1//EN" "http://www.w3.org/Graphics/SVG/1.1/DTD/svg11.dtd"><svg t="1619602955652" class="icon" viewBox="0 0 1024 1024" version="1.1" xmlns="http://www.w3.org/2000/svg" p-id="187941" xmlns:xlink="http://www.w3.org/1999/xlink" width="32" height="32"><defs><style type="text/css"></style></defs><path d="M984.608 0H39.36C17.696 0-0.032 17.664-0.032 39.392V984.64c0 21.664 17.696 39.392 39.392 39.392h945.248c21.664 0 39.392-17.696 39.392-39.392V39.392C1024 17.664 1006.304 0 984.608 0zM78.816 945.184v-101.472l101.472 101.472H78.816z m190.528 0l-190.56-190.496v-98.976l289.504 289.504H269.344z m188.032 0L78.784 566.592v-87.808l466.336 466.4h-87.776z m176.864 0L78.816 389.664V313.28l631.968 631.936H634.24z m165.536 0L78.784 224.192V136.416l808.704 808.736h-87.712z m145.408-31.36L110.144 78.752h94.496l740.512 740.512v94.56z m0-183.584L293.76 78.752h89.952l561.504 561.504v89.984z m0-179.104L472.864 78.784h87.68l384.672 384.672v87.68z m0-176.736l-295.552-295.648h94.432l201.12 201.12v94.496z m0-183.552l-112.032-112.032h112.032v112.032z" p-id="187942" fill="#1296db"></path></svg>