<?xml version="1.0" standalone="no"?><!DOCTYPE svg PUBLIC "-//W3C//DTD SVG 1.1//EN" "http://www.w3.org/Graphics/SVG/1.1/DTD/svg11.dtd"><svg t="1619603042842" class="icon" viewBox="0 0 1024 1024" version="1.1" xmlns="http://www.w3.org/2000/svg" p-id="192067" xmlns:xlink="http://www.w3.org/1999/xlink" width="32" height="32"><defs><style type="text/css"></style></defs><path d="M128 420.576V621.44h149.12l175.456 140.064V284.288L282.784 420.576H128z m132.256-64l204.288-163.968a32 32 0 0 1 52.032 24.96V828a32 32 0 0 1-51.968 24.992L254.688 685.44H96a32 32 0 0 1-32-32V388.576a32 32 0 0 1 32-32h164.256z m410.528 363.552a32 32 0 0 1-44.832-45.664 214.08 214.08 0 0 0 64.32-153.312 213.92 213.92 0 0 0-55.776-144.448 32 32 0 1 1 47.36-43.04 277.92 277.92 0 0 1 72.416 187.488 278.08 278.08 0 0 1-83.488 198.976zM822.912 858.88a32 32 0 1 1-45.888-44.608A419.008 419.008 0 0 0 896 521.152c0-108.704-41.376-210.848-114.432-288.384a32 32 0 0 1 46.592-43.872C912.32 278.176 960 395.936 960 521.152c0 127.84-49.76 247.904-137.088 337.728z" p-id="192068" fill="#1296db"></path></svg>