<?xml version="1.0" standalone="no"?><!DOCTYPE svg PUBLIC "-//W3C//DTD SVG 1.1//EN" "http://www.w3.org/Graphics/SVG/1.1/DTD/svg11.dtd"><svg t="1619602999277" class="icon" viewBox="0 0 1024 1024" version="1.1" xmlns="http://www.w3.org/2000/svg" p-id="188745" xmlns:xlink="http://www.w3.org/1999/xlink" width="32" height="32"><defs><style type="text/css"></style></defs><path d="M1010.350119 635.385145L866.269629 491.046782l144.079466-144.384411c12.365632-12.428054 12.365632-32.515554-0.030699-44.912909-12.398378-12.350283-32.469506-12.366655-44.867883 0.031722L821.246203 446.277136 677.044964 301.782208c-12.398378-12.397355-32.502251-12.382005-44.90063-0.031723-12.365632 12.397355-12.365632 32.484855-0.029676 44.912909L776.224824 491.046782 632.114658 635.385145c-12.335956 12.428054-12.335956 32.515554 0.029676 44.911886 6.214539 6.16849 14.326287 9.275247 22.434965 9.275247 8.140401 0 16.280802-3.106758 22.465665-9.305947L821.24825 535.799032l144.204309 144.466276c6.183839 6.198166 14.323217 9.305947 22.464641 9.305947a31.649837 31.649837 0 0 0 22.403243-9.275248c12.395308-12.394285 12.395308-32.481785 0.029676-44.910862zM465.071178 102.620215c-10.813277-5.328355-23.613814-4.179183-33.214473 2.982938L171.693384 300.32195H36.126802c-17.555841 0-31.754215 14.199397-31.754215 31.738865v359.810832c0 17.538445 14.198374 31.738865 31.754215 31.738865h135.566582l260.162298 194.71675a31.603789 31.603789 0 0 0 18.984376 6.323009c4.846378 0 9.69378-1.118474 14.230096-3.340071a31.794124 31.794124 0 0 0 17.49342-28.397771V131.019009a31.7931 31.7931 0 0 0-17.492396-28.398794z m-58.250682 704.665022L204.197682 655.627165a29.565363 29.565363 0 0 0-17.656125-5.880941H80.115666V374.185214H186.54258a29.560246 29.560246 0 0 0 17.656125-5.88094L406.820496 216.647225v590.638012z" p-id="188746" fill="#1296db"></path></svg>