<?xml version="1.0" standalone="no"?><!DOCTYPE svg PUBLIC "-//W3C//DTD SVG 1.1//EN" "http://www.w3.org/Graphics/SVG/1.1/DTD/svg11.dtd"><svg t="1619600834074" class="icon" viewBox="0 0 1024 1024" version="1.1" xmlns="http://www.w3.org/2000/svg" p-id="143785" xmlns:xlink="http://www.w3.org/1999/xlink" width="32" height="32"><defs><style type="text/css"></style></defs><path d="M512 4.48c-280.576 0-508.032 227.456-508.032 508.032S231.424 1020.48 512 1020.48c280.576 0 508.032-227.456 508.032-508.032S792.576 4.48 512 4.48zM512 919.232c-224.704 0-406.72-182.08-406.72-406.72 0-224.64 182.08-406.72 406.72-406.72 224.64 0 406.72 182.08 406.72 406.72C918.72 737.216 736.64 919.232 512 919.232z" p-id="143786" fill="#1296db"></path><path d="M352 352.512l320 0 0 320-320 0 0-320Z" p-id="143787" fill="#1296db"></path></svg>