<?xml version="1.0" standalone="no"?><!DOCTYPE svg PUBLIC "-//W3C//DTD SVG 1.1//EN" "http://www.w3.org/Graphics/SVG/1.1/DTD/svg11.dtd"><svg t="1619603324247" class="icon" viewBox="0 0 1024 1024" version="1.1" xmlns="http://www.w3.org/2000/svg" p-id="196316" xmlns:xlink="http://www.w3.org/1999/xlink" width="32" height="32"><defs><style type="text/css"></style></defs><path d="M531.692308 59.076923c11.815385 0 19.692308 7.876923 19.692307 19.692308v903.876923c0 11.815385-7.876923 19.692308-19.692307 19.692308h-39.384616c-11.815385 0-19.692308-7.876923-19.692307-19.692308V78.769231c0-11.815385 7.876923-19.692308 19.692307-19.692308h39.384616z m-19.692308 279.630769l-159.507692-159.507692c-7.876923-7.876923-7.876923-19.692308 0-27.569231l27.56923-27.569231c7.876923-7.876923 19.692308-7.876923 27.569231 0l104.369231 104.369231 104.369231-104.369231c7.876923-7.876923 19.692308-7.876923 27.569231 0l27.56923 27.569231c7.876923 7.876923 7.876923 19.692308 0 27.569231L512 338.707692m0 384l159.507692 159.507693c7.876923 7.876923 7.876923 19.692308 0 27.56923l-27.56923 27.569231c-7.876923 7.876923-19.692308 7.876923-27.569231 0L512 832.984615l-104.369231 104.369231c-7.876923 7.876923-19.692308 7.876923-27.569231 0l-27.56923-27.569231c-7.876923-7.876923-7.876923-19.692308 0-27.56923l159.507692-159.507693" p-id="196317" fill="#bfbfbf"></path><path d="M927.507692 307.2c5.907692 9.846154 3.938462 21.661538-7.876923 27.569231L141.784615 793.6c-9.846154 5.907692-21.661538 3.938462-27.56923-7.876923l-19.692308-33.476923c-5.907692-9.846154-3.938462-21.661538 7.876923-27.569231l777.846154-460.8c9.846154-5.907692 21.661538-3.938462 27.569231 7.876923l19.692307 35.446154zM677.415385 433.230769l55.138461-218.584615c1.969231-11.815385 11.815385-17.723077 23.630769-13.784616l37.415385 9.846154c11.815385 1.969231 17.723077 11.815385 13.784615 23.63077l-37.415384 143.753846 143.753846 37.415384c11.815385 1.969231 17.723077 11.815385 13.784615 23.63077l-9.846154 37.415384c-1.969231 11.815385-11.815385 17.723077-23.630769 13.784616l-216.615384-57.107693m-330.83077 194.953846L291.446154 846.769231c-1.969231 11.815385-11.815385 17.723077-23.630769 13.784615l-37.415385-9.846154c-11.815385-1.969231-17.723077-11.815385-13.784615-23.630769l37.415384-143.753846-143.753846-37.415385c-11.815385-1.969231-17.723077-11.815385-13.784615-23.630769l9.846154-37.415385c1.969231-11.815385 11.815385-17.723077 23.630769-13.784615l216.615384 57.107692" p-id="196318" fill="#bfbfbf"></path><path d="M116.184615 273.723077c5.907692-9.846154 17.723077-13.784615 27.569231-7.876923l777.846154 460.8c9.846154 5.907692 13.784615 17.723077 7.876923 27.569231l-19.692308 33.476923c-5.907692 9.846154-17.723077 13.784615-27.56923 7.876923L102.4 334.769231c-9.846154-5.907692-13.784615-17.723077-7.876923-27.569231l21.661538-33.476923zM346.584615 433.230769L128 490.338462c-11.815385 1.969231-21.661538-1.969231-23.630769-13.784616l-9.846154-37.415384c-1.969231-11.815385 1.969231-21.661538 13.784615-23.63077l143.753846-37.415384-37.415384-143.753846c-1.969231-11.815385 1.969231-21.661538 13.784615-23.63077l37.415385-9.846154c11.815385-1.969231 21.661538 1.969231 23.630769 13.784616L346.584615 433.230769m328.861539 194.953846L894.030769 571.076923c11.815385-1.969231 21.661538 1.969231 23.630769 13.784615l9.846154 37.415385c1.969231 11.815385-1.969231 21.661538-13.784615 23.630769l-143.753846 37.415385L807.384615 827.076923c1.969231 11.815385-1.969231 21.661538-13.784615 23.630769l-37.415385 9.846154c-11.815385 1.969231-21.661538-1.969231-23.630769-13.784615l-57.107692-218.584616" p-id="196319" fill="#bfbfbf"></path></svg>