<?xml version="1.0" standalone="no"?><!DOCTYPE svg PUBLIC "-//W3C//DTD SVG 1.1//EN" "http://www.w3.org/Graphics/SVG/1.1/DTD/svg11.dtd"><svg t="1619609096555" class="icon" viewBox="0 0 1024 1024" version="1.1" xmlns="http://www.w3.org/2000/svg" p-id="218028" xmlns:xlink="http://www.w3.org/1999/xlink" width="32" height="32"><defs><style type="text/css"></style></defs><path d="M400.96 154.24H158.976a60.352 60.352 0 0 0-60.352 60.352v242.752c0 33.664 27.392 60.352 60.352 60.352h242.752a60.352 60.352 0 0 0 60.352-60.352V214.528a60.544 60.544 0 0 0-61.12-60.288z m-241.984 60.288h242.752v242.752H158.976V214.528z m655.936 350.08H572.16a60.352 60.352 0 0 0-60.352 60.352v242.752c0 33.664 27.328 60.352 60.352 60.352h242.752a60.352 60.352 0 0 0 60.352-60.352V625.664a61.056 61.056 0 0 0-60.352-61.056z m-242.752 61.056h242.752v242.752H572.16V625.664z m-171.2-61.056H158.976a60.352 60.352 0 0 0-60.352 60.352v242.752c0 33.664 27.392 60.352 60.352 60.352h242.752a60.352 60.352 0 0 0 60.352-60.352V625.664a61.184 61.184 0 0 0-61.12-61.056z m-241.984 61.056h242.752v242.752H158.976V625.664z m0 0" fill="#bfbfbf" p-id="218029"></path><path d="M693.504 544.96a44.608 44.608 0 0 1-32.256-13.312L490.048 360.448a46.08 46.08 0 0 1 0-64.512l171.2-171.2a46.08 46.08 0 0 1 64.512 0l171.2 171.2a46.08 46.08 0 0 1 0 64.512L725.76 531.648a44.48 44.48 0 0 1-32.256 13.312z m0-403.328a14.08 14.08 0 0 0-10.496 4.224L511.104 317.696c-5.632 5.632-5.632 15.424 0 21.76l171.2 171.2c5.632 5.632 15.424 5.632 21.76 0l171.2-171.2c5.632-5.632 5.632-15.424 0-21.76l-171.2-171.84a15.232 15.232 0 0 0-10.56-4.224z m0 0" p-id="218030" fill="#bfbfbf"></path><path d="M693.504 544.96a44.608 44.608 0 0 1-32.256-13.312L490.048 360.448a46.08 46.08 0 0 1 0-64.512l171.2-171.2a46.08 46.08 0 0 1 64.512 0l171.2 171.2a46.08 46.08 0 0 1 0 64.512L725.76 531.648a44.48 44.48 0 0 1-32.256 13.312z m0-403.328a14.08 14.08 0 0 0-10.496 4.224L511.104 317.696c-5.632 5.632-5.632 15.424 0 21.76l171.2 171.2c5.632 5.632 15.424 5.632 21.76 0l171.2-171.2c5.632-5.632 5.632-15.424 0-21.76l-171.2-171.84a15.232 15.232 0 0 0-10.56-4.224z m0 0" fill="#bfbfbf" p-id="218031"></path><path d="M693.504 560.384a60.8 60.8 0 0 1-42.816-17.536L478.848 371.008a60.8 60.8 0 0 1-17.536-42.816 60.8 60.8 0 0 1 17.536-42.816l171.904-171.84a60.8 60.8 0 0 1 85.568 0l171.2 171.2a60.096 60.096 0 0 1 0 85.568L736.32 541.44a56.448 56.448 0 0 1-42.816 18.944z m86.272-104.512l-65.216 65.216 65.216-65.216z m-106.624 66.624z m20.352-365.44L522.368 328.192l171.2 171.2 171.2-171.2-171.264-171.136zM492.16 334.528a18.112 18.112 0 0 0 4.928 10.496 28.8 28.8 0 0 1-4.928-10.496z m4.928-23.168a71.04 71.04 0 0 0-4.928 10.56 24.512 24.512 0 0 1 4.928-10.56z m323.392-70.848l65.92 65.92-65.92-65.92z m-143.808-109.44l-2.112 2.112 2.112-2.112z m0 0" fill="#bfbfbf" p-id="218032"></path></svg>