<?xml version="1.0" standalone="no"?><!DOCTYPE svg PUBLIC "-//W3C//DTD SVG 1.1//EN" "http://www.w3.org/Graphics/SVG/1.1/DTD/svg11.dtd"><svg t="1619609587572" class="icon" viewBox="0 0 1024 1024" version="1.1" xmlns="http://www.w3.org/2000/svg" p-id="227018" xmlns:xlink="http://www.w3.org/1999/xlink" width="32" height="32"><defs><style type="text/css"></style></defs><path d="M300.48 651.456l67.84 66.4a15.456 15.456 0 0 1-0.928 23.008c-90.048 75.2-211.712 182.24-237.792 202.272C72.992 986.592 21.696 1006.08 4.384 1011.904c-2.592 0.864-5.088-1.568-4.192-4.096 5.92-16.928 25.856-67.136 70.24-122.528l206.624-232.96a16.256 16.256 0 0 1 23.424-0.8zM126.24 138.08l820.8 803.36c13.792 13.504 36.16 13.504 49.952 0s13.792-35.392 0-48.864L176.192 89.216c-13.792-13.504-36.16-13.504-49.952 0s-13.792 35.392 0 48.864zM669.056 150.304L524.8 250.016c-25.952 17.952-51.392 39.008-79.04 55.456l275.84 269.952c16.8-27.072 38.336-51.968 56.672-77.376 33.952-47.072 68.288-93.824 102.24-140.896a13.536 13.536 0 0 1 20.384-1.696l8.448 8.256c26.176 25.632 68.544 25.632 94.656 0s26.176-67.04 0-92.576L757.056 29.44a67.872 67.872 0 0 0-94.656 0 64.448 64.448 0 0 0 0 92.64l8.448 8.256a12.928 12.928 0 0 1-1.728 19.936zM703.808 753.568L263.776 322.88a195.776 195.776 0 0 1-22.24-10.176c-21.92-11.808-58.368-17.632-81.664-8.032-41.024 16.896-43.616 65.024-13.056 100.608l472.8 462.72c36.352 29.92 85.536 27.36 102.816-12.768 9.792-22.784 3.84-58.464-8.224-79.936a185.408 185.408 0 0 1-10.4-21.76z" p-id="227019" fill="#1296db"></path></svg>