<?xml version="1.0" standalone="no"?><!DOCTYPE svg PUBLIC "-//W3C//DTD SVG 1.1//EN" "http://www.w3.org/Graphics/SVG/1.1/DTD/svg11.dtd"><svg t="1619234525746" class="icon" viewBox="0 0 1024 1024" version="1.1" xmlns="http://www.w3.org/2000/svg" p-id="78778" xmlns:xlink="http://www.w3.org/1999/xlink" width="96" height="96"><defs><style type="text/css"></style></defs><path d="M864 960H160a96.096 96.096 0 0 1-96-96V160a96.096 96.096 0 0 1 96-96h224a96.448 96.448 0 0 1 76.8 38.4l57.6 76.8a32.192 32.192 0 0 0 25.6 12.8h320a96.096 96.096 0 0 1 96 96v576a96.096 96.096 0 0 1-96 96zM160 128a32 32 0 0 0-32 32v704a32 32 0 0 0 32 32h704a32 32 0 0 0 32-32V288a32 32 0 0 0-32-32H544a96.352 96.352 0 0 1-76.8-38.4l-57.6-76.8A32.16 32.16 0 0 0 384 128z" p-id="78779" fill="#1296db"></path><path d="M699.04 608.32h-27.68v-64.64h27.68a36.96 36.96 0 1 0 0-73.92h-30.304a73.6 73.6 0 0 0-48.192-51.36v-27.136a36.96 36.96 0 0 0-73.92 0v23.104h-64.64v-23.104a36.96 36.96 0 0 0-73.92 0v24.512a73.728 73.728 0 0 0-57.376 53.984h-25.728a36.96 36.96 0 0 0 0 73.92h23.104v64.64h-23.104a36.96 36.96 0 0 0 0 73.92h25.728a73.632 73.632 0 0 0 52.8 52.8v25.696a36.96 36.96 0 0 0 73.888 0v-23.072h64.64v23.072a36.96 36.96 0 0 0 73.92 0v-25.664a73.664 73.664 0 0 0 52.8-52.832h30.304a36.96 36.96 0 1 0 0-73.92zM608 640a32 32 0 0 1-32 32h-128a32 32 0 0 1-32-32v-128a32 32 0 0 1 32-32h128a32 32 0 0 1 32 32z" p-id="78780" fill="#1296db"></path></svg>