<?xml version="1.0" standalone="no"?><!DOCTYPE svg PUBLIC "-//W3C//DTD SVG 1.1//EN" "http://www.w3.org/Graphics/SVG/1.1/DTD/svg11.dtd"><svg t="1619234446118" class="icon" viewBox="0 0 1024 1024" version="1.1" xmlns="http://www.w3.org/2000/svg" p-id="74256" xmlns:xlink="http://www.w3.org/1999/xlink" width="96" height="96"><defs><style type="text/css"></style></defs><path d="M864 960H160a96.096 96.096 0 0 1-96-96V160a96.096 96.096 0 0 1 96-96h224a96.416 96.416 0 0 1 76.8 38.4l57.6 76.8a32.224 32.224 0 0 0 25.6 12.8h320a96.096 96.096 0 0 1 96 96v576a96.096 96.096 0 0 1-96 96zM160 128a32 32 0 0 0-32 32v704a32 32 0 0 0 32 32h704a32 32 0 0 0 32-32V288a32 32 0 0 0-32-32H544a96.512 96.512 0 0 1-76.8-38.4l-57.6-76.8A32.192 32.192 0 0 0 384 128z" fill="#1296db" p-id="74257"></path><path d="M384 848.864a96.032 96.032 0 0 1-32-186.56v-172.96a64.224 64.224 0 0 1 51.392-62.72l256.032-51.2A64 64 0 0 1 736 438.144v248.96l-0.032 1.696v1.824a96 96 0 1 1-128-90.56v-21.12l-128 25.6v148.32a96.096 96.096 0 0 1-96 96z m32-172.384a44.864 44.864 0 0 1-37.12 44.8 32 32 0 1 0 37.12 31.584c-0.128 0.64-0.256-0.16-0.32-1.792a33.28 33.28 0 0 1 0.32-6.4z m224-168.576a32 32 0 0 1 32 32v74.304a44.8 44.8 0 0 1-37.28 44.864 32 32 0 1 0 37.28 31.552c-0.128 0.64-0.224-0.192-0.32-1.824a33.28 33.28 0 0 1 0.32-6.368v-244.288l-256 51.2v88.96a32 32 0 0 1 25.728-31.36l192-38.4a32.928 32.928 0 0 1 6.272-0.64z m-15.552 88h-0.064z m41.28-189.12z" fill="#1296db" p-id="74258"></path></svg>