<?xml version="1.0" standalone="no"?><!DOCTYPE svg PUBLIC "-//W3C//DTD SVG 1.1//EN" "http://www.w3.org/Graphics/SVG/1.1/DTD/svg11.dtd"><svg t="1619234455842" class="icon" viewBox="0 0 1024 1024" version="1.1" xmlns="http://www.w3.org/2000/svg" p-id="74432" xmlns:xlink="http://www.w3.org/1999/xlink" width="96" height="96"><defs><style type="text/css"></style></defs><path d="M864 960H160a96.096 96.096 0 0 1-96-96V160a96.096 96.096 0 0 1 96-96h224a96.48 96.48 0 0 1 76.8 38.4l57.6 76.8a32.192 32.192 0 0 0 25.6 12.8h320a96.096 96.096 0 0 1 96 96v576a96.096 96.096 0 0 1-96 96zM160 128a32.032 32.032 0 0 0-32 32v704a32 32 0 0 0 32 32h704a32 32 0 0 0 32-32V288a32.032 32.032 0 0 0-32-32H544a96.48 96.48 0 0 1-76.8-38.4l-57.6-76.8A32.192 32.192 0 0 0 384 128z" fill="#1296db" p-id="74433"></path><path d="M592.768 757.888a57.696 57.696 0 0 1-26.88-6.72L512 722.88l-53.92 28.352a57.6 57.6 0 0 1-83.552-60.736l10.272-60.064-43.616-42.528a57.6 57.6 0 0 1 31.936-98.24l60.256-8.768 26.976-54.624A57.248 57.248 0 0 1 512 394.144a57.28 57.28 0 0 1 51.68 32.064v0.032l26.976 54.624 60.288 8.768a57.6 57.6 0 0 1 31.936 98.24l-43.648 42.56 10.304 60.032a57.696 57.696 0 0 1-56.736 67.424z m-80.736-99.904a57.792 57.792 0 0 1 26.752 6.624l45.44 23.936-8.672-50.624a57.664 57.664 0 0 1 16.576-51.008l36.736-35.776-50.784-7.392a57.536 57.536 0 0 1-43.328-31.456L512 466.208l-22.72 46.016a57.472 57.472 0 0 1-43.424 31.52l-50.72 7.36 36.768 35.84a57.472 57.472 0 0 1 16.512 51.04l-8.64 50.528 45.408-23.872a58.016 58.016 0 0 1 26.848-6.624z m-126.656-30.88z m206.72-143.2z" fill="#1296db" p-id="74434"></path></svg>