<?xml version="1.0" standalone="no"?><!DOCTYPE svg PUBLIC "-//W3C//DTD SVG 1.1//EN" "http://www.w3.org/Graphics/SVG/1.1/DTD/svg11.dtd"><svg t="1619229971774" class="icon" viewBox="0 0 1281 1024" version="1.1" xmlns="http://www.w3.org/2000/svg" p-id="12413" xmlns:xlink="http://www.w3.org/1999/xlink" width="40.03125" height="32"><defs><style type="text/css"></style></defs><path d="M1117.163985 814.545455 791.345804 814.545455c-13.963636 0-23.272727 9.309091-23.272727 23.272727s9.309091 23.272727 23.272727 23.272727l325.818182 0c13.963636 0 23.272727-9.309091 23.272727-23.272727S1131.127622 814.545455 1117.163985 814.545455z" p-id="12414" fill="#1296db"></path><path d="M1117.163985 721.454545 791.345804 721.454545c-13.963636 0-23.272727 9.309091-23.272727 23.272727s9.309091 23.272727 23.272727 23.272727l325.818182 0c13.963636 0 23.272727-9.309091 23.272727-23.272727S1131.127622 721.454545 1117.163985 721.454545z" p-id="12415" fill="#1296db"></path><path d="M1242.836713 197.818182c-20.945455-23.272727-48.872727-34.909091-79.127273-34.909091L698.254895 162.909091c-41.890909-4.654545-81.454545-23.272727-114.036364-48.872727l-34.909091-39.563636c-44.218182-44.218182-102.4-72.145455-167.563636-74.472727l-256 0C55.927622 0 0.073076 55.854545 0.073076 125.672727l0 772.654545c0 2.327273 0 2.327273 0 4.654545-2.327273 65.163636 51.2 121.018182 116.363636 121.018182l1047.272727 0 0 0c4.654545 0 6.981818 0 11.636364 0 60.509091-2.327273 109.381818-55.854545 104.727273-116.363636L1280.073076 279.272727C1280.073076 246.690909 1266.10944 218.763636 1242.836713 197.818182zM1235.854895 907.636364c0 4.654545 0 6.981818 0 11.636364-2.327273 34.909091-34.909091 62.836364-69.818182 58.181818l-1047.272727 0c-2.327273 0-2.327273 0-4.654545 0-39.563636-4.654545-69.818182-39.563636-65.163636-79.127273L48.945804 125.672727l0 0C48.945804 81.454545 83.854895 46.545455 128.073076 46.545455l256 0c48.872727 2.327273 95.418182 23.272727 130.327273 58.181818l34.909091 39.563636c41.890909 37.236364 93.090909 60.509091 148.945455 65.163636l465.454545 0c18.618182 0 34.909091 6.981818 46.545455 20.945455 13.963636 11.636364 23.272727 30.254545 23.272727 48.872727l2.327273 0L1235.854895 907.636364z" p-id="12416" fill="#1296db"></path><path d="M1117.163985 628.363636l-209.454545 0c-13.963636 0-23.272727 9.309091-23.272727 23.272727s9.309091 23.272727 23.272727 23.272727l209.454545 0c13.963636 0 23.272727-9.309091 23.272727-23.272727S1131.127622 628.363636 1117.163985 628.363636z" p-id="12417" fill="#1296db"></path></svg>