<?xml version="1.0" standalone="no"?><!DOCTYPE svg PUBLIC "-//W3C//DTD SVG 1.1//EN" "http://www.w3.org/Graphics/SVG/1.1/DTD/svg11.dtd"><svg t="1619234361517" class="icon" viewBox="0 0 1024 1024" version="1.1" xmlns="http://www.w3.org/2000/svg" p-id="71560" xmlns:xlink="http://www.w3.org/1999/xlink" width="96" height="96"><defs><style type="text/css"></style></defs><path d="M864 960H160a96.096 96.096 0 0 1-96-96V160a96.096 96.096 0 0 1 96-96h224a96.448 96.448 0 0 1 76.8 38.4l57.6 76.8a32.192 32.192 0 0 0 25.6 12.8h320a96.096 96.096 0 0 1 96 96v576a96.096 96.096 0 0 1-96 96zM160 128a32 32 0 0 0-32 32v704a32 32 0 0 0 32 32h704a32 32 0 0 0 32-32V288a32 32 0 0 0-32-32H544a96.352 96.352 0 0 1-76.8-38.4l-57.6-76.8A32.16 32.16 0 0 0 384 128z" fill="#1296db" p-id="71561"></path><path d="M704 544h-31.04a63.488 63.488 0 0 0-110.24 0H320a32 32 0 0 0 0 64h242.688a63.488 63.488 0 0 0 110.272 0H704a32 32 0 0 0 0-64zM320 480h56.864a63.488 63.488 0 0 0 110.272 0H704a32 32 0 0 0 0-64h-216.896a63.488 63.488 0 0 0-110.208 0H320a32 32 0 0 0 0 64zM704 672h-216.896a63.488 63.488 0 0 0-110.208 0H320a32 32 0 0 0 0 64h56.864a63.488 63.488 0 0 0 110.272 0H704a32 32 0 0 0 0-64z" fill="#1296db" p-id="71562"></path></svg>