<?xml version="1.0" standalone="no"?><!DOCTYPE svg PUBLIC "-//W3C//DTD SVG 1.1//EN" "http://www.w3.org/Graphics/SVG/1.1/DTD/svg11.dtd"><svg t="1619227060974" class="icon" viewBox="0 0 1024 1024" version="1.1" xmlns="http://www.w3.org/2000/svg" p-id="3143" xmlns:xlink="http://www.w3.org/1999/xlink" width="32" height="32"><defs><style type="text/css"></style></defs><path d="M597.333333 213.333333v597.333334h-170.666666V213.333333h170.666666m256-85.333333h-85.333333v85.333333h-85.333333V128H341.333333v85.333333H256V128H170.666667v768h85.333333v-85.333333h85.333333v85.333333h341.333334v-85.333333h85.333333v85.333333h85.333333V128z m-170.666666 256V298.666667h85.333333v85.333333h-85.333333zM256 384V298.666667h85.333333v85.333333H256z m426.666667 170.666667v-85.333334h85.333333v85.333334h-85.333333zM256 554.666667v-85.333334h85.333333v85.333334H256z m426.666667 170.666666v-85.333333h85.333333v85.333333h-85.333333zM256 725.333333v-85.333333h85.333333v85.333333H256z" p-id="3144" fill="#1296db"></path></svg>