<?xml version="1.0" standalone="no"?><!DOCTYPE svg PUBLIC "-//W3C//DTD SVG 1.1//EN" "http://www.w3.org/Graphics/SVG/1.1/DTD/svg11.dtd"><svg t="1619234193043" class="icon" viewBox="0 0 1024 1024" version="1.1" xmlns="http://www.w3.org/2000/svg" p-id="64580" xmlns:xlink="http://www.w3.org/1999/xlink" width="96" height="96"><defs><style type="text/css"></style></defs><path d="M864 960H160a96.096 96.096 0 0 1-96-96V160a96.096 96.096 0 0 1 96-96h224a96.448 96.448 0 0 1 76.8 38.4l57.6 76.8a32.192 32.192 0 0 0 25.6 12.8h320a96.096 96.096 0 0 1 96 96v576a96.096 96.096 0 0 1-96 96zM160 128a32 32 0 0 0-32 32v704a32 32 0 0 0 32 32h704a32 32 0 0 0 32-32V288a32 32 0 0 0-32-32H544a96.352 96.352 0 0 1-76.8-38.4l-57.6-76.8A32.192 32.192 0 0 0 384 128z" fill="#1296db" p-id="64581"></path><path d="M676.576 405.312V441.6a10.976 10.976 0 0 1-10.976 10.944H632.64a10.976 10.976 0 0 1-10.976-10.944v-43.872h-219.424v43.84a10.976 10.976 0 0 1-10.976 10.976H358.4a10.976 10.976 0 0 1-10.976-10.944v-36.288A54.624 54.624 0 0 0 320 452.576v246.848a54.624 54.624 0 0 0 27.424 47.264V710.4a10.976 10.976 0 0 1 10.976-10.976h32.896a10.976 10.976 0 0 1 10.976 10.976v43.872h219.424V710.4a10.976 10.976 0 0 1 10.976-10.976H665.6a10.976 10.976 0 0 1 10.976 10.976v36.288A54.624 54.624 0 0 0 704 699.424v-246.848a54.624 54.624 0 0 0-27.424-47.264z m-274.304 255.68a10.976 10.976 0 0 1-10.976 11.008H358.4a10.976 10.976 0 0 1-10.976-10.976V600.64a10.976 10.976 0 0 1 10.976-10.976h32.896a10.976 10.976 0 0 1 10.976 10.976z m0-109.696a10.976 10.976 0 0 1-10.976 10.976H358.4a10.976 10.976 0 0 1-10.976-10.976v-60.352A10.976 10.976 0 0 1 358.4 480h32.896a10.976 10.976 0 0 1 10.976 10.944z m274.304 109.728A10.976 10.976 0 0 1 665.6 672H632.64a10.976 10.976 0 0 1-10.976-10.976V600.64a10.976 10.976 0 0 1 10.976-10.976H665.6a10.976 10.976 0 0 1 10.976 10.976z m0-109.728a10.976 10.976 0 0 1-10.976 10.976H632.64a10.976 10.976 0 0 1-10.976-10.976v-60.352a10.976 10.976 0 0 1 10.976-10.944H665.6a10.976 10.976 0 0 1 10.976 10.944z" fill="#1296db" p-id="64582"></path></svg>