<?xml version="1.0" standalone="no"?><!DOCTYPE svg PUBLIC "-//W3C//DTD SVG 1.1//EN" "http://www.w3.org/Graphics/SVG/1.1/DTD/svg11.dtd"><svg t="1619234424794" class="icon" viewBox="0 0 1024 1024" version="1.1" xmlns="http://www.w3.org/2000/svg" p-id="73472" xmlns:xlink="http://www.w3.org/1999/xlink" width="96" height="96"><defs><style type="text/css"></style></defs><path d="M864 960H160a96.096 96.096 0 0 1-96-96V160a96.096 96.096 0 0 1 96-96h224a96.576 96.576 0 0 1 76.8 38.4l57.6 76.8a32.192 32.192 0 0 0 25.6 12.8h320a96.096 96.096 0 0 1 96 96v576a96.096 96.096 0 0 1-96 96zM160 128a32 32 0 0 0-32 32v704a32 32 0 0 0 32 32h704a32 32 0 0 0 32-32V288a32 32 0 0 0-32-32H544a96.352 96.352 0 0 1-76.8-38.4l-57.6-76.8A32.224 32.224 0 0 0 384 128z" fill="#1296db" p-id="73473"></path><path d="M768 822.848H256a32 32 0 0 1-32-32v-55.616a82.816 82.816 0 0 1 24.32-58.784l120.544-120.544a57.728 57.728 0 0 1 81.472 0l59.872 59.84 111.008-129.472a57.344 57.344 0 0 1 43.68-20.128l0.992 0.032a57.344 57.344 0 0 1 44 21.632l71.872 89.792a83.52 83.52 0 0 1 18.24 52v161.248a32 32 0 0 1-32 32z m-480-64h448v-129.28a19.392 19.392 0 0 0-4.192-11.968h-0.032l-67.04-83.776-110.464 128.832a57.728 57.728 0 0 1-41.6 20.096 56.608 56.608 0 0 1-42.88-16.864L409.6 605.696l-115.968 115.968a19.136 19.136 0 0 0-5.632 13.568z" fill="#1296db" p-id="73474"></path><path d="M464 560a96 96 0 1 1 96-96 96.096 96.096 0 0 1-96 96z m0-128a32 32 0 1 0 32 32 32 32 0 0 0-32-32z" fill="#1296db" p-id="73475"></path></svg>