<?xml version="1.0" standalone="no"?><!DOCTYPE svg PUBLIC "-//W3C//DTD SVG 1.1//EN" "http://www.w3.org/Graphics/SVG/1.1/DTD/svg11.dtd"><svg t="1619138513951" class="icon" viewBox="0 0 1024 1024" version="1.1" xmlns="http://www.w3.org/2000/svg" p-id="133027" xmlns:xlink="http://www.w3.org/1999/xlink" width="32" height="32"><defs><style type="text/css"></style></defs><path d="M376.48 384H176v256h204.64l145.28 145.28V234.56z m-26.56-64L535.36 134.56a32 32 0 0 1 54.56 22.72v705.28a32 32 0 0 1-54.56 22.72L354.08 704H144a32 32 0 0 1-32-32V352a32 32 0 0 1 32-32zM704 704l-45.28-45.12a208 208 0 0 0 0-293.12l45.44-44.96A272 272 0 0 1 704 704z m99.52 93.6l-48-42.4a368 368 0 0 0-1.44-488l48-42.56a432 432 0 0 1 1.6 572.96z" p-id="133028" fill="#1296db"></path></svg>