<?xml version="1.0" standalone="no"?><!DOCTYPE svg PUBLIC "-//W3C//DTD SVG 1.1//EN" "http://www.w3.org/Graphics/SVG/1.1/DTD/svg11.dtd"><svg t="1619236014851" class="icon" viewBox="0 0 1024 1024" version="1.1" xmlns="http://www.w3.org/2000/svg" p-id="131036" xmlns:xlink="http://www.w3.org/1999/xlink" width="96" height="96"><defs><style type="text/css"></style></defs><path d="M599.94 745.934c-15.99 0-29.382-13.391-29.382-29.375V394.72c0-16.058 13.391-28.979 29.382-28.979 16.052 0 29.382 12.92 29.382 28.98v321.84c0 15.983-13.33 29.374-29.382 29.374z m-175.41 0c-15.99 0-29.38-13.391-29.38-29.375V394.72c0-16.058 13.39-28.979 29.38-28.979 16.06 0 29.383 12.92 29.383 28.98v321.84c0 15.983-13.324 29.374-29.382 29.374zM891.936 248.69H745.968v-58.293c0-48.564-39.171-87.742-87.272-87.742H365.774c-48.033 0-87.204 39.178-87.204 87.742v58.293H132.072c-16.454 0-29.381 12.92-29.381 29.374 0 15.99 12.927 28.918 29.381 28.918h759.863c16.522 0 29.374-12.927 29.374-28.918 0-16.453-12.852-29.374-29.374-29.374z m-555.542-58.293c0-16.522 13.391-29.381 29.382-29.381h292.922c16.06 0 28.91 12.86 28.91 29.381v58.293H336.394v-58.293zM716.99 921.344H307.482c-48.503 0-87.674-39.635-87.674-87.735V394.255c0-16.058 13.322-28.917 29.381-28.917 15.991 0 29.382 12.859 29.382 28.917v439.353c0 16.052 12.92 28.979 28.91 28.979h409.507a28.915 28.915 0 0 0 28.98-28.98V395.587c0-16.059 13.323-29.382 29.381-29.382 15.991 0 29.375 13.323 29.375 29.382v438.022c0 48.101-39.17 87.736-87.735 87.736z" p-id="131037" fill="#1296db"></path></svg>