<?xml version="1.0" standalone="no"?><!DOCTYPE svg PUBLIC "-//W3C//DTD SVG 1.1//EN" "http://www.w3.org/Graphics/SVG/1.1/DTD/svg11.dtd"><svg t="1619006623010" class="icon" viewBox="0 0 1024 1024" version="1.1" xmlns="http://www.w3.org/2000/svg" p-id="31064" xmlns:xlink="http://www.w3.org/1999/xlink" width="32" height="32"><defs><style type="text/css"></style></defs><path d="M834.839975 615.719952c1.056 0.08 2.096 0.12 3.136 0.12 20.823998 0 38.455997-15.975999 40.079996-36.999997l25.855998-334.359974h41.679997c22.223998 0 40.239997-17.943999 40.239997-40.079997s-18.015999-40.079997-40.239997-40.079997h-42.575997C883.447971 70.623994 799.895978 0 700.079985 0H310.544016C214.048023 0 133.64803 71.647994 120.424031 164.319987H76.240034C54.016036 164.319987 36.000037 182.263986 36.000037 204.399984s18.015999 40.079997 40.239997 40.079997h41.687997l49.047996 633.19995 0.048 0.56c3.656 39.927997 22.039998 76.799994 51.775996 103.839992A161.007987 161.007987 0 0 0 327.344014 1023.99992h367.151972c20.559998 0 40.479997-3.736 59.351995-11.103999A140.559989 140.559989 0 0 0 808.751977 1023.99992c77.679994 0 140.863989-62.927995 140.863989-140.279989 0-77.343994-63.199995-140.271989-140.863989-140.271989-77.679994 0-140.863989 62.927995-140.863989 140.271989 0 21.503998 4.896 41.887997 13.615999 60.119995h-354.159973c-41.807997 0-76.215994-31.199998-80.135993-72.623994l-48.551997-626.743951h624.519952l-25.375998 328.215974c-1.704 22.071998 14.879999 41.335997 37.039997 43.039997z m-26.087998 207.887984c33.279997 0 60.367995 26.967998 60.367995 60.119995 0 33.143997-27.079998 60.119995-60.367995 60.119995-33.287997 0-60.375995-26.967998-60.375995-60.119995s27.087998-60.119995 60.375995-60.119995z m-606.399953-659.287949c12.151999-48.247996 56.127996-84.159993 108.191992-84.159993H700.079985c55.095996 0 102.063992 35.183997 119.519991 84.159993H202.344024zM543.119998 717.631944c-22.231998 0-40.247997-17.943999-40.247997-40.079997s18.015999-40.079997 40.239997-40.079997h93.279992l-0.92-1.512a39.983997 39.983997 0 0 1 13.575999-55.039995 40.351997 40.351997 0 0 1 55.279996 13.519999l8.423999 13.863998c14.031999 21.759998 15.223999 49.143996 3.04 71.679995-12.543999 23.223998-37.095997 37.647997-64.079995 37.647997H543.119998z m-117.967991-192.799985a39.983997 39.983997 0 0 1 13.519999 55.063996l-34.991998 57.375995c21.567998 0.752 38.815997 18.391999 38.815997 40.055997 0 22.127998-18.015999 40.079997-40.239996 40.079997h-14.023999c-26.607998 0-50.999996-14.079999-63.655995-36.751997-12.535999-22.447998-11.815999-49.071996 1.919999-71.247995l43.359997-71.119994a40.351997 40.351997 0 0 1 55.295996-13.455999z m36.351997-48.759996a39.999997 39.999997 0 0 1-16.119999-54.359996l8.152-14.927999c0.368-0.672 0.752-1.344 1.159999-2a72.255994 72.255994 0 0 1 61.639996-34.063997 72.255994 72.255994 0 0 1 60.503995 32.391998l0.16 0.239999 48.159996 73.783995a39.975997 39.975997 0 0 1-11.807999 55.439995 40.191997 40.191997 0 0 1-21.895998 6.48 40.255997 40.255997 0 0 1-33.783998-18.239999l-40.719996-62.375995-0.864 1.568c-10.615999 19.447998-35.055997 26.639998-54.583996 16.063999z" fill="#1296db" p-id="31065"></path></svg>