<?xml version="1.0" standalone="no"?><!DOCTYPE svg PUBLIC "-//W3C//DTD SVG 1.1//EN" "http://www.w3.org/Graphics/SVG/1.1/DTD/svg11.dtd"><svg t="1619234732356" class="icon" viewBox="0 0 1024 1024" version="1.1" xmlns="http://www.w3.org/2000/svg" p-id="88002" xmlns:xlink="http://www.w3.org/1999/xlink" width="96" height="96"><defs><style type="text/css"></style></defs><path d="M864 960H160a96.096 96.096 0 0 1-96-96V160a96.096 96.096 0 0 1 96-96h224a96.448 96.448 0 0 1 76.8 38.4l57.6 76.8a32.192 32.192 0 0 0 25.6 12.8h320a96.096 96.096 0 0 1 96 96v576a96.096 96.096 0 0 1-96 96zM160 128a32 32 0 0 0-32 32v704a32 32 0 0 0 32 32h704a32 32 0 0 0 32-32V288a32 32 0 0 0-32-32H544a96.352 96.352 0 0 1-76.8-38.4l-57.6-76.8A32.16 32.16 0 0 0 384 128z" p-id="88003" fill="#1296db"></path><path d="M570.496 409.152a190.72 190.72 0 0 0-35.328-7.424h-0.384a191.904 191.904 0 0 0-45.568 0h-0.32a191.456 191.456 0 0 0-0.128 380.48l0.192 0.032a187.2 187.2 0 0 0 23.04 1.76 189.12 189.12 0 0 0 23.04-1.76h0.192a188.224 188.224 0 0 0 35.2-7.36 192 192 0 0 0 0.064-365.76zM388.352 624h29.344q0.544 5.568 1.28 11.104l0.48 4.32a334.848 334.848 0 0 0 8.384 40.064c0.544 1.984 1.024 3.968 1.6 5.952 0.544 1.92 0.96 3.84 1.568 5.76a127.136 127.136 0 0 1-42.656-67.2z m41.088-125.44c-0.576 1.984-1.056 3.968-1.6 5.952a334.08 334.08 0 0 0-8.384 40.064c-0.192 1.408-0.32 2.88-0.48 4.288q-0.736 5.568-1.28 11.136h-29.344a127.136 127.136 0 0 1 42.656-67.2c-0.608 1.92-0.992 3.84-1.568 5.76z m112.128 128.832c-0.512 3.872-1.472 7.68-2.176 11.552a270.72 270.72 0 0 1-4.8 23.04c-1.216 4.48-2.784 8.896-4.224 13.344-2.208 6.752-4.48 13.472-7.168 20.064-1.92 4.576-4.064 9.024-6.208 13.504-1.536 3.264-3.296 6.4-4.992 9.6-1.728-3.296-3.552-6.56-5.12-9.92-2.08-4.288-4.16-8.608-5.984-13.024a270.08 270.08 0 0 1-7.36-20.48c-1.376-4.32-2.912-8.608-4.096-12.992a270.08 270.08 0 0 1-4.896-23.36c-0.64-3.744-1.6-7.488-2.112-11.296-0.128-1.152-0.096-2.304-0.224-3.424h59.584c-0.128 1.12-0.096 2.24-0.224 3.392zM482.208 560c0.128-1.152 0.096-2.304 0.224-3.424 0.512-3.84 1.472-7.552 2.112-11.328 1.376-7.84 2.848-15.648 4.896-23.296 1.184-4.416 2.72-8.704 4.128-13.024 2.24-6.912 4.544-13.76 7.328-20.48 1.824-4.416 3.904-8.736 5.952-13.056 1.6-3.328 3.424-6.56 5.152-9.856 1.696 3.2 3.424 6.304 4.992 9.536 2.144 4.48 4.32 8.96 6.208 13.568 2.688 6.528 4.96 13.216 7.136 19.936 1.44 4.48 3.04 8.928 4.256 13.472 2.016 7.52 3.424 15.2 4.8 22.88 0.672 3.904 1.664 7.744 2.176 11.68 0.128 1.12 0.096 2.24 0.224 3.392z m110.784 131.2c0.608-1.92 1.024-3.872 1.568-5.792 0.576-1.952 1.056-3.936 1.6-5.888a334.4 334.4 0 0 0 8.384-40.128c0.192-1.408 0.32-2.848 0.48-4.256q0.704-5.568 1.28-11.136h29.344a127.296 127.296 0 0 1-42.656 67.2z m13.28-131.2q-0.512-5.568-1.248-11.136c-0.192-1.44-0.288-2.88-0.48-4.288a334.272 334.272 0 0 0-8.384-40.032c-0.544-2.016-1.024-4-1.6-5.984-0.576-1.92-0.96-3.84-1.568-5.76a127.136 127.136 0 0 1 42.656 67.2z" p-id="88004" fill="#1296db"></path></svg>