<?xml version="1.0" standalone="no"?><!DOCTYPE svg PUBLIC "-//W3C//DTD SVG 1.1//EN" "http://www.w3.org/Graphics/SVG/1.1/DTD/svg11.dtd"><svg t="1619512317373" class="icon" viewBox="0 0 1024 1024" version="1.1" xmlns="http://www.w3.org/2000/svg" p-id="47060" xmlns:xlink="http://www.w3.org/1999/xlink" width="96" height="96"><defs><style type="text/css"></style></defs><path d="M426.453333 128l64 64H778.666667c29.397333 0 53.333333 23.936 53.333333 53.333333v288.213334l64 64V245.333333C896 180.629333 843.370667 128 778.666667 128H426.453333z m224.213334 149.333333a95.36 95.36 0 0 0-56.298667 18.581334l46.954667 46.954666c2.986667-0.896 6.08-1.536 9.344-1.536 17.642667 0 32 14.357333 32 32 0 3.264-0.64 6.336-1.536 9.301334l46.933333 46.933333A95.189333 95.189333 0 0 0 746.666667 373.333333c0-52.928-43.072-96-96-96zM128 426.453333V778.666667c0 64.704 52.629333 117.333333 117.333333 117.333333h352.213334l-64-64H245.333333c-1.664 0-3.2-0.341333-4.842666-0.490667l146.304-146.261333L341.546667 640l-148.544 148.48A53.354667 53.354667 0 0 1 192 778.666667V490.453333l-64-64z m585.749333 107.093334c-20.650667 0-41.301333 7.765333-56.874666 23.338666l-99.989334 99.989334c-31.146667 31.146667-31.146667 82.602667 0 113.749333l229.781334 229.824c31.146667 31.146667 82.645333 31.146667 113.792 0l99.989333-99.989333c31.146667-31.146667 31.146667-82.602667 0-113.749334L770.624 556.885333a80.170667 80.170667 0 0 0-56.874667-23.338666z m0 63.573333a16.426667 16.426667 0 0 1 11.626667 5.056l49.045333 48.981333-123.264 123.264-49.024-49.045333a15.957333 15.957333 0 0 1 0-23.253333l99.989334-99.946667a16.426667 16.426667 0 0 1 11.626666-5.056z" p-id="47061" fill="#1296db"></path></svg>