<?xml version="1.0" standalone="no"?><!DOCTYPE svg PUBLIC "-//W3C//DTD SVG 1.1//EN" "http://www.w3.org/Graphics/SVG/1.1/DTD/svg11.dtd"><svg t="1619512016386" class="icon" viewBox="0 0 1024 1024" version="1.1" xmlns="http://www.w3.org/2000/svg" p-id="37876" xmlns:xlink="http://www.w3.org/1999/xlink" width="96" height="96"><defs><style type="text/css"></style></defs><path d="M959.3 588.9L798.6 428.2a47.16 47.16 0 0 0-33.3-13.8c-12.5 0-24.4 5-33.3 13.8L479.3 680.9a47.16 47.16 0 0 0-13.8 33.3c0 12.5 5 24.4 13.8 33.3l109.9 109.8c22.3 22.3 52.6 34.9 84.2 34.9s61.9-12.6 84.2-34.9l201.8-201.8c8.8-8.8 13.7-20.8 13.7-33.3 0-12.5-5-24.5-13.8-33.3zM610.8 835.6L501 725.8c-6.4-6.4-6.4-16.8 0-23.2l49.7-49.7 183.9 183.9c-34.7 33.3-89.7 32.8-123.8-1.2z m0 0M76.3 132.3h60v50h-60zM169.4 132.3h60v50h-60zM262.6 132.3h60v50h-60zM355.8 132.3h60v50h-60zM76.3 771.4h60v50h-60zM169.4 771.4h60v50h-60zM262.6 771.4h60v50h-60zM355.8 771.4h60v50h-60zM449 132.3h60v50h-60zM542.2 132.3h60v50h-60zM635.4 132.3h60v50h-60zM728.6 132.3h60v50h-60zM126.275 212.365v60h-50v-60zM126.261 305.551v60h-50v-60zM126.247 398.737v60h-50v-60zM876.762 132.28v60h-50v-60zM876.747 225.465v60h-50v-60zM876.733 318.65v60h-50v-60zM126.233 491.923v60h-50v-60zM126.219 585.108v60h-50v-60zM126.304 678.294v60h-50v-60z" p-id="37877" fill="#1296db"></path></svg>