<?xml version="1.0" standalone="no"?><!DOCTYPE svg PUBLIC "-//W3C//DTD SVG 1.1//EN" "http://www.w3.org/Graphics/SVG/1.1/DTD/svg11.dtd"><svg t="1619512220189" class="icon" viewBox="0 0 1025 1024" version="1.1" xmlns="http://www.w3.org/2000/svg" p-id="41864" xmlns:xlink="http://www.w3.org/1999/xlink" width="96.09375" height="96"><defs><style type="text/css"></style></defs><path d="M567.095296 54.613333l-375.466667 293.546667 0 293.546667L649.015296 641.706667l375.466667-334.506667L1024.481963 54.613333 567.095296 54.613333 567.095296 54.613333zM314.508629 344.746667 567.095296 136.533333l334.506667 0L649.015296 344.746667 314.508629 344.746667 314.508629 344.746667zM983.521963 303.786667l-293.546667 249.173333 0-167.253333L983.521963 136.533333 983.521963 303.786667 983.521963 303.786667zM106.295296 679.253333l40.96-40.96c0 0-153.6-23.893333-81.92-249.173333l-40.96-40.96C24.375296 344.746667-67.784704 621.226667 106.295296 679.253333L106.295296 679.253333zM24.375296 805.546667c0 0 40.96 13.653333 126.293333-81.92C147.255296 720.213333 38.028629 682.666667 24.375296 805.546667L24.375296 805.546667zM147.255296 928.426667c0 0 71.68 34.133333 81.92-126.293333C232.588629 805.546667 147.255296 849.92 147.255296 928.426667L147.255296 928.426667zM399.841963 969.386667c0 0 0-54.613333-81.92-167.253333C314.508629 805.546667 276.961963 942.08 399.841963 969.386667L399.841963 969.386667zM399.841963 761.173333c0 0-88.746667 27.306667 126.293333 81.92 215.04 54.613333 249.173333-81.92 249.173333-81.92C594.401963 822.613333 399.841963 761.173333 399.841963 761.173333L399.841963 761.173333zM399.841963 761.173333" p-id="41865" fill="#1296db"></path></svg>