<?xml version="1.0" standalone="no"?><!DOCTYPE svg PUBLIC "-//W3C//DTD SVG 1.1//EN" "http://www.w3.org/Graphics/SVG/1.1/DTD/svg11.dtd"><svg t="1619512341479" class="icon" viewBox="0 0 1024 1024" version="1.1" xmlns="http://www.w3.org/2000/svg" p-id="47842" xmlns:xlink="http://www.w3.org/1999/xlink" width="96" height="96"><defs><style type="text/css"></style></defs><path d="M497.962667 874.538667H398.037333c-28.501333 0-55.296-11.093333-75.434666-31.232l-128-128c-20.138667-20.138667-31.232-46.933333-31.232-75.434667s11.093333-55.253333 31.232-75.434667L688.896 70.144a21.930667 21.930667 0 0 1 30.165333 0l298.666667 298.666667a21.333333 21.333333 0 0 1 0 30.165333L573.397333 843.306667c-20.138667 20.138667-46.933333 31.232-75.434666 31.232zM704 115.370667L224.768 594.645333c-12.074667 12.074667-18.730667 28.16-18.730667 45.269334s6.656 33.152 18.730667 45.269333l128 128c12.117333 12.074667 28.16 18.730667 45.269333 18.730667h99.968c17.109333 0 33.152-6.656 45.269334-18.730667l429.226666-429.312L704 115.370667z" fill="#1296db" p-id="47843"></path><path d="M661.333333 746.538667a21.418667 21.418667 0 0 1-15.104-6.229334l-298.666666-298.666666a21.333333 21.333333 0 0 1 30.165333-30.165334l298.666667 298.666667a21.333333 21.333333 0 0 1-15.061334 36.394667zM234.666667 874.538667h-213.333334a21.333333 21.333333 0 0 1 0-42.666667h213.333334a21.333333 21.333333 0 0 1 0 42.666667zM618.666667 959.872h-384a21.333333 21.333333 0 0 1 0-42.666667h384a21.333333 21.333333 0 0 1 0 42.666667z" fill="#1296db" p-id="47844"></path></svg>